<svg width="170" height="145" viewBox="0 0 170 145" fill="none" xmlns="http://www.w3.org/2000/svg">
<path d="M150.604 129.027C150.619 128.574 150.727 128.129 150.921 127.72C150.996 127.552 151.135 127.422 151.307 127.357C151.385 127.332 151.466 127.319 151.547 127.318C151.639 127.334 151.731 127.341 151.822 127.364C152.229 127.517 152.616 127.717 152.976 127.96C153.378 128.194 153.783 128.434 154.226 128.652C154.69 128.878 155.194 129.009 155.709 129.038C156.224 129.044 156.734 128.932 157.199 128.709C157.222 128.698 157.248 128.686 157.271 128.675C155.197 129.936 152.663 130.712 150.604 129.027Z" fill="black"/>
<path d="M166.855 113.837C166.454 113.696 165.934 113.318 165.327 112.446C163.81 110.272 162.812 112.58 162.812 112.58C160.703 115.84 158.456 114.048 158.009 113.822C157.92 113.786 157.821 113.776 157.726 113.795C157.601 113.809 157.478 113.839 157.36 113.883C156.603 114.143 155.525 114.926 155.464 116.027C155.406 116.54 155.253 117.037 155.013 117.494C155.358 117.296 155.734 117.156 156.125 117.082C156.51 117.002 156.902 116.97 157.295 116.986C157.698 117 158.095 117.082 158.472 117.227C158.672 117.292 158.857 117.397 159.016 117.536C159.175 117.674 159.304 117.843 159.396 118.033C159.055 117.897 158.693 117.822 158.326 117.811C157.975 117.785 157.62 117.766 157.256 117.75C156.897 117.735 156.53 117.712 156.16 117.678C155.773 117.647 155.39 117.585 155.013 117.494C154.666 118.211 154.266 118.902 153.817 119.561C154.127 119.332 154.483 119.175 154.861 119.099C155.238 119.015 155.627 118.996 156.011 119.042C156.402 119.084 156.781 119.202 157.127 119.39C157.477 119.572 157.772 119.847 157.979 120.184C157.585 120.108 157.26 120.005 156.92 119.955C156.584 119.894 156.255 119.837 155.923 119.798C155.25 119.714 154.582 119.684 153.81 119.569C153.47 120.081 153.206 120.425 153.206 120.425C152.885 120.769 152.599 121.098 152.331 121.419C152.694 121.26 153.082 121.164 153.477 121.136C153.872 121.103 154.27 121.126 154.658 121.205C155.059 121.279 155.443 121.428 155.789 121.644C156.153 121.853 156.431 122.183 156.576 122.576C156.246 122.41 155.899 122.281 155.541 122.19C155.205 122.095 154.857 122.026 154.509 121.954C153.77 121.827 153.041 121.65 152.327 121.422H152.323C152.312 121.438 152.3 121.449 152.289 121.464C152.174 123.795 152.117 125.675 152.117 125.675C151.459 126.498 150.614 127.152 149.652 127.582C149.705 127.941 149.859 128.278 150.096 128.553C150.253 128.723 150.423 128.881 150.604 129.026C150.461 128.554 150.452 128.052 150.577 127.574C150.653 127.294 150.837 127.055 151.089 126.91C151.221 126.834 151.366 126.786 151.517 126.768C151.657 126.762 151.798 126.767 151.937 126.783C152.067 126.81 152.201 126.837 152.327 126.871L152.682 127.017C152.912 127.116 153.118 127.223 153.328 127.326C153.749 127.544 154.146 127.781 154.547 127.96C154.919 128.161 155.327 128.281 155.748 128.314C156.168 128.347 156.591 128.292 156.989 128.151C157.852 127.836 158.688 127.45 159.488 126.997C160.489 126.012 161.309 124.858 161.911 123.589C163.473 120.368 166.439 118.74 167.791 116.623C167.822 116.577 167.849 116.535 167.875 116.489C168.02 116.255 168.109 115.991 168.135 115.717C168.161 115.443 168.123 115.167 168.024 114.91C167.925 114.653 167.768 114.423 167.565 114.237C167.363 114.05 167.12 113.914 166.855 113.837ZM163.443 116.348C163.279 116.764 163.088 117.169 162.87 117.559C162.657 117.953 162.418 118.332 162.155 118.694C161.889 119.069 161.584 119.415 161.246 119.726C161.328 119.275 161.456 118.833 161.628 118.407C161.796 117.992 161.987 117.586 162.201 117.192C162.415 116.799 162.654 116.42 162.916 116.057C163.182 115.683 163.487 115.337 163.825 115.026C163.743 115.478 163.615 115.921 163.443 116.348Z" fill="black"/>
<path d="M153.114 36.455C152.847 36.0977 152.486 35.8213 152.071 35.6564L152.067 35.6526C152.033 35.6358 152.001 35.6153 151.972 35.5915C152.267 36.3977 152.715 37.1397 153.29 37.7772C153.302 37.7352 153.309 37.6969 153.317 37.6549C153.365 37.4515 153.372 37.2405 153.337 37.0344C153.303 36.8283 153.227 36.6313 153.114 36.455ZM153.114 36.455C152.847 36.0977 152.486 35.8213 152.071 35.6564L152.067 35.6526C152.033 35.6358 152.001 35.6153 151.972 35.5915C152.267 36.3977 152.715 37.1397 153.29 37.7772C153.302 37.7352 153.309 37.6969 153.317 37.6549C153.365 37.4515 153.372 37.2405 153.337 37.0344C153.303 36.8283 153.227 36.6313 153.114 36.455ZM153.114 36.455C152.847 36.0977 152.486 35.8213 152.071 35.6564L152.067 35.6526C152.033 35.6358 152.001 35.6153 151.972 35.5915C152.267 36.3977 152.715 37.1397 153.29 37.7772C153.302 37.7352 153.309 37.6969 153.317 37.6549C153.365 37.4515 153.372 37.2405 153.337 37.0344C153.303 36.8283 153.227 36.6313 153.114 36.455ZM153.114 36.455C152.847 36.0977 152.486 35.8213 152.071 35.6564L152.067 35.6526C152.033 35.6358 152.001 35.6153 151.972 35.5915C152.267 36.3977 152.715 37.1397 153.29 37.7772C153.302 37.7352 153.309 37.6969 153.317 37.6549C153.365 37.4515 153.372 37.2405 153.337 37.0344C153.303 36.8283 153.227 36.6313 153.114 36.455ZM153.114 36.455C152.847 36.0977 152.486 35.8213 152.071 35.6564L152.067 35.6526C152.033 35.6358 152.001 35.6153 151.972 35.5915C152.267 36.3977 152.715 37.1397 153.29 37.7772C153.302 37.7352 153.309 37.6969 153.317 37.6549C153.365 37.4515 153.372 37.2405 153.337 37.0344C153.303 36.8283 153.227 36.6313 153.114 36.455ZM153.114 36.455C152.847 36.0977 152.486 35.8213 152.071 35.6564L152.067 35.6526C152.033 35.6358 152.001 35.6153 151.972 35.5915C152.267 36.3977 152.715 37.1397 153.29 37.7772C153.302 37.7352 153.309 37.6969 153.317 37.6549C153.365 37.4515 153.372 37.2405 153.337 37.0344C153.303 36.8283 153.227 36.6313 153.114 36.455ZM153.114 36.455C152.847 36.0977 152.486 35.8213 152.071 35.6564L152.067 35.6526C152.033 35.6358 152.001 35.6153 151.972 35.5915C152.267 36.3977 152.715 37.1397 153.29 37.7772C153.302 37.7352 153.309 37.6969 153.317 37.6549C153.365 37.4515 153.372 37.2405 153.337 37.0344C153.303 36.8283 153.227 36.6313 153.114 36.455ZM153.114 36.455C152.847 36.0977 152.486 35.8213 152.071 35.6564L152.067 35.6526C152.033 35.6358 152.001 35.6153 151.972 35.5915C152.267 36.3977 152.715 37.1397 153.29 37.7772C153.302 37.7352 153.309 37.6969 153.317 37.6549C153.365 37.4515 153.372 37.2405 153.337 37.0344C153.303 36.8283 153.227 36.6313 153.114 36.455ZM169.473 35.8208C168.903 27.6243 168.563 23.9827 165.487 19.0917C162.415 14.1967 151.819 15.7749 151.819 15.7749C146.825 22.8173 143.661 17.9759 143.661 17.9759C142.06 18.8166 141.295 17.4485 141.295 17.4485C132.239 21.2697 132.484 26.0309 132.484 27.7389C132.484 29.447 131.915 35.5915 131.915 35.5915C130.436 43.5586 131.915 53.4631 131.915 54.1432C131.915 54.8272 133.737 63.5892 133.737 63.5892C134.872 64.8425 137.264 63.4784 137.264 63.4784C136.821 60.6698 136.501 57.846 136.305 55.0069C136.202 53.5892 136.148 52.1677 136.114 50.7424C136.091 49.321 136.129 47.8804 136.213 46.4627C136.29 45.0602 136.294 43.6547 136.225 42.2518C136.183 40.8418 136.068 39.4318 135.965 38.0218C135.85 36.6117 135.713 35.2017 135.568 33.7917C135.434 32.3779 135.258 30.9717 135.101 29.5617C135.729 32.3346 136.213 35.138 136.554 37.9606C136.938 40.7926 137.079 43.6525 136.974 46.5086C136.779 49.321 136.829 52.1448 136.901 54.9763C136.997 57.8078 137.118 60.6418 137.264 63.4784C152.285 67.2308 165.147 61.6557 165.147 61.6557L164.123 50.5017C163.697 50.6404 163.247 50.6885 162.801 50.6431C162.357 50.6041 161.916 50.5403 161.479 50.452C160.614 50.261 159.76 50.0212 158.923 49.7337C157.254 49.1614 155.615 48.5047 154.012 47.7658C152.415 47.0283 150.838 46.2513 149.282 45.4348L148.697 45.1368L148.407 44.9878L148.105 44.812C147.693 44.5743 147.345 44.2415 147.088 43.8415C146.843 43.4377 146.73 42.9676 146.764 42.4964C146.796 42.0479 146.933 41.6133 147.165 41.2277C146.997 41.6153 146.93 42.0392 146.971 42.4596C147.011 42.8801 147.158 43.2833 147.398 43.6313C147.887 44.2961 148.731 44.5254 149.538 44.8999C151.15 45.6068 152.732 46.3519 154.33 47.0703C155.919 47.8001 157.516 48.5109 159.129 49.1758C159.939 49.5006 160.749 49.8215 161.574 50.089C161.987 50.2246 162.407 50.3394 162.832 50.433C163.254 50.536 163.692 50.5593 164.123 50.5017C169.698 49.9323 170.042 44.0133 169.473 35.8208ZM147.707 26.6499C148.032 26.321 148.406 26.045 148.816 25.8322C148.595 26.2378 148.312 26.6055 147.975 26.9212C147.65 27.2493 147.276 27.5252 146.867 27.7389C147.088 27.334 147.372 26.9665 147.707 26.6499ZM143.703 25.8054C143.763 25.3507 143.894 24.9083 144.092 24.4948C144.161 24.9485 144.158 25.4103 144.081 25.8628C144.021 26.3157 143.891 26.7566 143.695 27.1696C143.627 26.7172 143.63 26.257 143.703 25.8054ZM140.134 26.0538C140.381 26.4724 140.564 26.9258 140.676 27.3989C139.992 26.7034 139.502 25.8403 139.255 24.896C139.604 25.2364 139.9 25.6266 140.134 26.0538ZM160.783 38.9044C159.832 38.5147 158.869 38.1478 157.906 37.7848C156.569 37.2842 155.227 36.7913 153.882 36.306C154.095 36.7757 154.144 37.3028 154.024 37.8039C153.885 38.3449 153.649 38.8563 153.328 39.3133C153.026 39.7554 152.676 40.1629 152.285 40.5284C151.57 41.2958 150.757 41.9652 149.866 42.5192C149.625 42.6558 149.363 42.7526 149.091 42.8058C148.943 42.831 148.791 42.8218 148.647 42.7791C148.499 42.7315 148.373 42.6326 148.292 42.5002C148.155 42.2612 148.087 41.9884 148.097 41.713C148.101 41.4532 148.132 41.1945 148.189 40.9411C148.17 41.1959 148.177 41.4521 148.212 41.7053C148.234 41.9475 148.319 42.1796 148.46 42.3779C148.531 42.4564 148.624 42.5116 148.727 42.5362C148.83 42.5608 148.938 42.5535 149.037 42.5154C149.265 42.4464 149.48 42.3392 149.671 42.1983C149.876 42.0574 150.072 41.9056 150.26 41.7436C147.1 39.8864 146.989 41.5181 144.662 41.2277C142.285 40.9258 141.873 35.9353 141.873 35.9353C141.214 35.8891 140.564 35.7568 139.939 35.5418C139.384 35.3777 138.891 35.0501 138.525 34.6018C138.089 34.0515 137.979 33.4287 140.164 33.7726L140.44 33.8185L138.98 29.5616H145.873L147.36 33.9636C147.439 33.7736 147.478 33.5691 147.474 33.3632C147.47 33.1573 147.423 32.9545 147.337 32.7676L146.966 31.6671C146.966 31.6671 150.122 30.4137 151.376 34.0553C151.536 34.5253 151.697 34.9419 151.846 35.3048C151.846 35.2495 151.857 35.1948 151.88 35.1444C151.921 35.0591 151.992 34.9919 152.08 34.9559C152.167 34.9199 152.265 34.9176 152.354 34.9495C154.307 35.6488 156.236 36.3939 158.132 37.2307C158.766 37.5097 159.395 37.8027 160.019 38.1096C159.981 37.1581 159.832 36.241 159.706 35.3125L159.278 32.4313C159.144 31.4684 159.007 30.5055 158.903 29.5349C158.793 28.5643 158.697 27.5899 158.659 26.6002C158.997 27.525 159.274 28.4708 159.488 29.4317C159.714 30.387 159.885 31.3538 160.034 32.3243C160.174 33.2974 160.263 34.2769 160.302 35.259C160.36 36.2215 160.275 37.1872 160.05 38.1249C160.348 38.2701 160.646 38.4115 160.94 38.5643C161.869 39.0264 162.762 39.5578 163.611 40.1539C162.686 39.6877 161.739 39.2865 160.783 38.9044ZM152.071 35.6564L152.067 35.6526C152.033 35.6358 152.001 35.6153 151.972 35.5915C152.267 36.3977 152.715 37.1397 153.29 37.7772C153.302 37.7352 153.309 37.6969 153.317 37.6549C153.365 37.4515 153.372 37.2405 153.337 37.0344C153.303 36.8283 153.227 36.6313 153.114 36.455C152.847 36.0977 152.486 35.8213 152.071 35.6564ZM153.114 36.455C152.847 36.0977 152.486 35.8213 152.071 35.6564L152.067 35.6526C152.033 35.6358 152.001 35.6153 151.972 35.5915C152.267 36.3977 152.715 37.1397 153.29 37.7772C153.302 37.7352 153.309 37.6969 153.317 37.6549C153.365 37.4515 153.372 37.2405 153.337 37.0344C153.303 36.8283 153.227 36.6313 153.114 36.455ZM153.114 36.455C152.847 36.0977 152.486 35.8213 152.071 35.6564L152.067 35.6526C152.033 35.6358 152.001 35.6153 151.972 35.5915C152.267 36.3977 152.715 37.1397 153.29 37.7772C153.302 37.7352 153.309 37.6969 153.317 37.6549C153.365 37.4515 153.372 37.2405 153.337 37.0344C153.303 36.8283 153.227 36.6313 153.114 36.455ZM153.114 36.455C152.847 36.0977 152.486 35.8213 152.071 35.6564L152.067 35.6526C152.033 35.6358 152.001 35.6153 151.972 35.5915C152.267 36.3977 152.715 37.1397 153.29 37.7772C153.302 37.7352 153.309 37.6969 153.317 37.6549C153.365 37.4515 153.372 37.2405 153.337 37.0344C153.303 36.8283 153.227 36.6313 153.114 36.455ZM153.114 36.455C152.847 36.0977 152.486 35.8213 152.071 35.6564L152.067 35.6526C152.033 35.6358 152.001 35.6153 151.972 35.5915C152.267 36.3977 152.715 37.1397 153.29 37.7772C153.302 37.7352 153.309 37.6969 153.317 37.6549C153.365 37.4515 153.372 37.2405 153.337 37.0344C153.303 36.8283 153.227 36.6313 153.114 36.455ZM153.114 36.455C152.847 36.0977 152.486 35.8213 152.071 35.6564L152.067 35.6526C152.033 35.6358 152.001 35.6153 151.972 35.5915C152.267 36.3977 152.715 37.1397 153.29 37.7772C153.302 37.7352 153.309 37.6969 153.317 37.6549C153.365 37.4515 153.372 37.2405 153.337 37.0344C153.303 36.8283 153.227 36.6313 153.114 36.455ZM153.114 36.455C152.847 36.0977 152.486 35.8213 152.071 35.6564L152.067 35.6526C152.033 35.6358 152.001 35.6153 151.972 35.5915C152.267 36.3977 152.715 37.1397 153.29 37.7772C153.302 37.7352 153.309 37.6969 153.317 37.6549C153.365 37.4515 153.372 37.2405 153.337 37.0344C153.303 36.8283 153.227 36.6313 153.114 36.455Z" fill="black"/>
<path d="M138.8 7.88091C138.956 9.59618 139.222 11.2996 139.597 12.9806C139.785 13.8034 140.044 14.6084 140.372 15.3863C140.656 16.1372 141.128 16.803 141.742 17.3207C142.031 17.5478 142.379 17.6882 142.745 17.7256C143.111 17.763 143.48 17.6958 143.81 17.5319C144.571 17.1702 145.304 16.7493 146 16.2733C146.346 16.0347 146.678 15.775 146.992 15.4957C147.302 15.2322 147.555 14.909 147.737 14.5453C147.926 14.1751 148.043 13.7724 148.082 13.3586C148.115 12.9315 148.148 12.4949 148.19 12.0635C148.229 12.4973 148.268 12.926 148.294 13.3641C148.314 13.8221 148.24 14.2794 148.076 14.7077C147.913 15.136 147.663 15.5261 147.343 15.8539C147.036 16.1766 146.706 16.4767 146.355 16.7518C145.656 17.3009 144.906 17.7817 144.116 18.1876C143.668 18.4068 143.169 18.504 142.672 18.4695C142.166 18.4302 141.684 18.2431 141.284 17.9316C140.567 17.3284 140.023 16.5466 139.706 15.6654C139.388 14.8363 139.156 13.9764 139.015 13.0994C138.729 11.3754 138.657 9.62262 138.8 7.88091Z" fill="black"/>
<path d="M143.109 32.4346C143.293 32.4282 143.468 32.3504 143.596 32.2177C143.724 32.085 143.796 31.9077 143.796 31.7232C143.796 31.5387 143.724 31.3614 143.596 31.2287C143.468 31.096 143.293 31.0183 143.109 31.0119C142.924 31.0183 142.75 31.096 142.621 31.2287C142.493 31.3614 142.422 31.5387 142.422 31.7232C142.422 31.9077 142.493 32.085 142.621 32.2177C142.75 32.3504 142.924 32.4282 143.109 32.4346Z" fill="black"/>
<path d="M148.19 9.5049C148.19 9.5049 148.742 6.91494 149.879 7.63173C150.067 7.75889 150.221 7.92935 150.33 8.12874C150.438 8.32814 150.497 8.55063 150.501 8.77747C150.542 9.65023 150.54 11.256 149.982 11.3798C149.982 11.3798 151.222 14.4389 151.343 6.48016C151.348 6.17465 151.33 5.86919 151.288 5.56656C151.09 4.172 150.314 0.496216 147.678 1.05136C147.678 1.05136 143.609 -1.93621 139.967 2.16103C139.561 2.60211 139.13 3.02008 138.677 3.41296C138.415 3.62977 138.203 3.9014 138.058 4.20874C137.912 4.51607 137.835 4.85164 137.833 5.19182V5.21856C137.833 6.18177 137.599 7.13054 137.151 7.98314L136.666 8.90439C136.666 8.90439 138.146 9.882 139.967 5.97883C139.967 5.97883 140.735 3.8682 142.755 4.89251C142.755 4.89251 145.373 2.92925 146.397 4.80715C146.397 4.80715 146.689 5.22897 147.024 5.7374C147.452 6.38963 147.71 7.13885 147.773 7.9164L148.19 9.5049Z" fill="black"/>
<path d="M150.463 11.9563C150.421 12.2944 150.453 12.6376 150.558 12.9618C150.651 13.2853 150.768 13.6013 150.908 13.9074C151.044 14.2183 151.2 14.5223 151.354 14.8315C151.511 15.14 151.676 15.4459 151.817 15.7769C151.55 15.541 151.309 15.2764 151.1 14.9877C150.99 14.8473 150.904 14.6903 150.805 14.5412C150.718 14.3843 150.635 14.2253 150.559 14.0619C150.409 13.7299 150.31 13.3772 150.266 13.0156C150.202 12.6502 150.272 12.2742 150.463 11.9563Z" fill="black"/>
<path d="M138.799 9.94546C139.001 9.71038 139.265 9.53763 139.561 9.44748C139.855 9.35099 140.164 9.30731 140.474 9.31846C140.779 9.33117 141.081 9.38846 141.37 9.4885C141.512 9.54036 141.651 9.59947 141.786 9.66561C141.918 9.73933 142.045 9.82061 142.167 9.90905C142.014 9.89682 141.87 9.86875 141.727 9.84351L141.299 9.77812C141.021 9.73721 140.742 9.71118 140.461 9.70013C139.896 9.66846 139.331 9.75193 138.799 9.94546Z" fill="black"/>
<path d="M142.755 9.81439C143.029 9.61507 143.335 9.46306 143.659 9.36464C143.986 9.25675 144.328 9.202 144.672 9.20246C145.026 9.20183 145.376 9.28243 145.694 9.43806C146.004 9.60302 146.251 9.86541 146.397 10.1848C146.153 9.98065 145.875 9.82069 145.576 9.71205C145.282 9.62574 144.976 9.58273 144.669 9.58434C144.354 9.58256 144.038 9.60589 143.726 9.65412C143.408 9.69973 143.088 9.75589 142.755 9.81439Z" fill="black"/>
<path d="M140.507 11.571C140.656 11.5658 140.796 11.5032 140.9 11.3963C141.003 11.2893 141.061 11.1465 141.061 10.9978C141.061 10.8491 141.003 10.7063 140.9 10.5994C140.796 10.4924 140.656 10.4298 140.507 10.4246C140.358 10.4298 140.218 10.4924 140.114 10.5994C140.011 10.7063 139.953 10.8491 139.953 10.9978C139.953 11.1465 140.011 11.2893 140.114 11.3963C140.218 11.5032 140.358 11.5658 140.507 11.571Z" fill="black"/>
<path d="M143.58 11.571C143.729 11.5658 143.87 11.5032 143.973 11.3963C144.076 11.2893 144.134 11.1465 144.134 10.9978C144.134 10.8491 144.076 10.7063 143.973 10.5994C143.87 10.4924 143.729 10.4298 143.58 10.4246C143.432 10.4298 143.291 10.4924 143.188 10.5994C143.084 10.7063 143.027 10.8491 143.027 10.9978C143.027 11.1465 143.084 11.2893 143.188 11.3963C143.291 11.5032 143.432 11.5658 143.58 11.571Z" fill="black"/>
<path d="M140.678 12.4892C140.699 12.6447 140.757 12.7931 140.846 12.9224C140.885 12.9631 140.933 12.9948 140.985 13.0154C141.038 13.0361 141.094 13.0451 141.151 13.042C141.303 13.0441 141.455 13.0359 141.606 13.0175C141.779 12.9958 141.954 12.9873 142.129 12.992C142.001 13.1289 141.845 13.2379 141.673 13.3121C141.5 13.3862 141.315 13.4241 141.127 13.4231C141.015 13.413 140.907 13.3814 140.808 13.33C140.704 13.2681 140.624 13.1725 140.583 13.0591C140.549 12.9637 140.54 12.8615 140.557 12.7619C140.574 12.6623 140.615 12.5685 140.678 12.4892Z" fill="black"/>
<path d="M140.652 14.1545C140.81 14.399 141.006 14.6169 141.232 14.8004C141.435 14.9569 141.688 15.0329 141.944 15.0137C142.214 14.9828 142.476 14.8993 142.714 14.7679C142.836 14.6922 142.972 14.6331 143.098 14.5537C143.225 14.4754 143.352 14.3952 143.494 14.3252C143.409 14.4547 143.316 14.5793 143.217 14.6986C143.11 14.8132 142.995 14.9205 142.874 15.0196C142.615 15.2295 142.3 15.3598 141.969 15.3948C141.794 15.4067 141.619 15.379 141.457 15.314C141.295 15.249 141.149 15.1483 141.031 15.0192C140.814 14.7798 140.681 14.4763 140.652 14.1545Z" fill="black"/>
<path d="M143.623 36.262C143.818 36.8031 143.936 37.336 144.078 37.8592C144.144 38.122 144.222 38.3771 144.307 38.6288C144.385 38.888 144.515 39.1284 144.69 39.3349C144.407 39.2327 144.174 39.0266 144.039 38.7587C143.892 38.508 143.781 38.2382 143.709 37.9571C143.559 37.4047 143.53 36.8267 143.623 36.262Z" fill="black"/>
<path d="M141.873 35.9341C142.22 35.9599 142.558 36.057 142.866 36.2191C143.18 36.3686 143.46 36.5819 143.687 36.8455C143.34 36.8204 143.002 36.7233 142.694 36.5604C142.38 36.4102 142.101 36.197 141.873 35.9341Z" fill="black"/>
<path d="M142.191 37.7984C142.501 37.7344 142.822 37.7413 143.129 37.8186C143.44 37.8828 143.731 38.017 143.982 38.2109C143.672 38.2758 143.351 38.2689 143.044 38.1907C142.734 38.1258 142.442 37.9917 142.191 37.7984Z" fill="black"/>
<path d="M142.697 39.3356C143.012 39.3044 143.33 39.3448 143.628 39.4538C143.929 39.5501 144.205 39.714 144.434 39.9332C144.119 39.9652 143.801 39.9247 143.503 39.815C143.202 39.718 142.926 39.5541 142.697 39.3356Z" fill="black"/>
<path d="M137.646 63.5592L138.571 71.6561C138.876 74.3549 139.199 77.0512 139.54 79.7449C139.88 82.4383 140.22 85.1316 140.629 87.8122C140.834 89.152 141.051 90.4899 141.306 91.8166C141.435 92.4792 141.574 93.1401 141.73 93.7906C141.858 94.4229 142.059 95.038 142.33 95.6232L142.342 95.6456C142.372 95.7028 142.385 95.7678 142.378 95.8322C142.106 98.3205 141.862 100.811 141.567 103.297L140.713 110.758C140.426 113.244 140.139 115.731 139.878 118.22C139.613 120.709 139.333 123.197 139.095 125.688L139.04 125.573C140.054 126.198 141.127 126.722 142.244 127.137C143.352 127.566 144.513 127.844 145.696 127.962C146.866 128.088 148.05 127.949 149.16 127.555C150.261 127.16 151.226 126.457 151.94 125.531L151.888 125.669C151.96 123.524 151.993 121.376 152.118 119.232C152.177 118.16 152.243 117.087 152.334 116.014C152.379 115.477 152.432 114.94 152.499 114.401C152.553 113.84 152.662 113.285 152.824 112.744C152.848 112.672 152.898 112.611 152.963 112.572C153.028 112.533 153.105 112.518 153.181 112.531L153.211 112.537C154.159 112.695 155.122 112.75 156.082 112.699C157.041 112.655 157.99 112.488 158.906 112.202C159.811 111.918 160.656 111.474 161.403 110.891C162.14 110.304 162.755 109.578 163.213 108.754L163.2 109.113C160.838 104.176 158.539 99.2088 156.205 94.258C156.167 94.176 156.158 94.0832 156.181 93.9955C156.852 91.402 157.526 88.8031 158.159 86.1969C158.8 83.5917 159.399 80.9768 159.983 78.3587C160.573 75.7418 161.117 73.1148 161.596 70.4762C162.117 67.845 162.492 65.1867 162.717 62.5137C162.718 62.5038 162.723 62.4946 162.73 62.488C162.737 62.4814 162.747 62.478 162.757 62.4784C162.767 62.4789 162.776 62.4832 162.783 62.4904C162.79 62.4977 162.794 62.5073 162.794 62.5173C162.663 65.2038 162.38 67.8807 161.945 70.5349C161.529 73.1913 161.047 75.8365 160.52 78.4719C159.992 81.1075 159.417 83.733 158.818 86.3526C158.213 88.9714 157.607 91.5881 156.926 94.1917L156.902 93.9293C159.236 98.8804 161.603 103.815 163.908 108.78L163.911 108.786C163.937 108.842 163.948 108.903 163.946 108.964C163.943 109.026 163.926 109.085 163.895 109.139C163.38 110.046 162.693 110.844 161.872 111.488C161.049 112.12 160.12 112.599 159.128 112.902C158.15 113.199 157.137 113.369 156.116 113.407C155.097 113.454 154.076 113.387 153.072 113.205L153.458 112.997C153.312 113.484 153.209 113.983 153.153 114.488C153.08 115.012 153.02 115.542 152.968 116.072C152.862 117.134 152.781 118.201 152.707 119.268C152.636 120.336 152.563 121.405 152.513 122.474L152.346 125.683L152.346 125.69C152.344 125.738 152.326 125.784 152.295 125.821C151.511 126.789 150.47 127.516 149.291 127.917C148.125 128.307 146.885 128.43 145.665 128.276C144.46 128.13 143.278 127.833 142.148 127.391C141.016 126.962 139.93 126.422 138.905 125.779C138.886 125.766 138.87 125.749 138.861 125.729C138.851 125.708 138.847 125.685 138.85 125.663C139.124 123.175 139.356 120.683 139.603 118.192C139.854 115.702 140.079 113.209 140.304 110.716L140.986 103.237C141.204 100.744 141.471 98.255 141.712 95.7637L141.759 95.9726C141.444 95.3313 141.211 94.6528 141.066 93.9532C140.896 93.285 140.772 92.6127 140.644 91.9416C140.398 90.5983 140.192 89.2523 139.999 87.9051C139.617 85.2103 139.281 82.5115 138.991 79.809C138.706 77.1055 138.442 74.4004 138.199 71.6939C137.971 68.9858 137.745 66.278 137.57 63.5658C137.57 63.5559 137.573 63.546 137.579 63.5385C137.586 63.5309 137.595 63.5261 137.605 63.5253C137.615 63.5244 137.625 63.5275 137.633 63.5338C137.64 63.5401 137.645 63.5492 137.646 63.5592L137.646 63.5592Z" fill="black"/>
<path d="M145.622 64.7135C145.386 68.05 145.103 71.381 144.771 74.7063C144.449 78.0328 144.083 81.3543 143.709 84.6748C143.32 87.9936 142.922 91.3114 142.479 94.624C142.048 97.9379 141.567 101.246 141.037 104.549C141.272 101.212 141.555 97.8811 141.887 94.5558C142.209 91.2293 142.575 87.9078 142.95 84.5875C143.34 81.2687 143.738 77.951 144.181 74.6384C144.613 71.3245 145.093 68.0162 145.622 64.7135Z" fill="black"/>
<path d="M152.326 120.754C152.389 118.14 152.564 115.53 152.82 112.929C153.065 110.326 153.408 107.733 153.816 105.149C154.022 103.857 154.264 102.57 154.508 101.285C154.79 100.006 155.037 98.7197 155.383 97.4546C155.981 94.9005 156.852 92.4182 157.98 90.0506C157.779 90.6744 157.572 91.2928 157.359 91.9058L156.842 93.789C156.528 95.0517 156.219 96.3138 155.964 97.5899C155.432 100.135 154.968 102.695 154.57 105.27C154.149 107.839 153.775 110.418 153.41 112.999L152.326 120.754Z" fill="black"/>
<path d="M142.043 68.1435C142.584 68.1796 143.12 68.2668 143.644 68.4039C144.161 68.5311 144.672 68.6867 145.172 68.8699C145.673 69.0528 146.163 69.2643 146.639 69.5036C147.13 69.7382 147.592 70.0264 148.019 70.3629C147.482 70.3033 146.951 70.2026 146.43 70.0617C145.915 69.9291 145.407 69.7707 144.909 69.5872C144.409 69.404 143.92 69.1955 143.442 68.9625C142.952 68.7324 142.484 68.4583 142.043 68.1435Z" fill="black"/>
<path d="M154.847 100.216C155.481 101.113 156.038 102.06 156.516 103.049C157.002 104.031 157.435 105.038 157.813 106.067C158.001 106.582 158.17 107.103 158.339 107.624C158.485 108.153 158.656 108.674 158.772 109.211C159.04 110.275 159.223 111.359 159.317 112.453C158.913 111.429 158.572 110.4 158.2 109.381C157.835 108.362 157.475 107.343 157.096 106.33C156.732 105.312 156.346 104.302 155.97 103.285C155.591 102.269 155.211 101.253 154.847 100.216Z" fill="black"/>
<path d="M150.464 127.152C149.871 121.739 150.154 116.268 150.623 110.852C151.116 105.427 151.947 100.037 153.113 94.7146C153.715 92.058 154.396 89.4214 155.154 86.8046C155.914 84.198 156.626 81.5799 157.352 78.9648C158.067 76.3471 158.747 73.7194 159.359 71.0765C160.018 68.4434 160.512 65.7718 160.838 63.0772C160.775 64.4362 160.637 65.7907 160.422 67.1342C160.227 68.4811 159.976 69.8182 159.725 71.1555C159.185 73.822 158.568 76.4714 157.921 79.1127C157.283 81.7565 156.549 84.3755 155.823 86.9948C155.092 89.6045 154.437 92.2331 153.858 94.8806C153.256 97.5219 152.738 100.18 152.302 102.855C152.081 104.191 151.902 105.536 151.71 106.877C151.544 108.222 151.355 109.565 151.206 110.912C150.892 113.605 150.656 116.308 150.519 119.016C150.343 121.724 150.324 124.441 150.464 127.152Z" fill="black"/>
<path d="M133.735 63.5915C133.976 64.9108 134.182 66.2281 134.404 67.5397C134.624 68.8502 134.854 70.1598 135.154 71.4326C135.234 71.7481 135.317 72.0638 135.42 72.3635C135.505 72.6496 135.624 72.9245 135.774 73.1823C135.803 73.2294 135.837 73.273 135.875 73.3124C135.917 73.3573 135.999 73.4241 136.056 73.4793L136.426 73.8265C136.649 74.0518 136.883 74.2655 137.128 74.4668C137.175 74.5032 137.225 74.5354 137.277 74.5629C137.291 74.5696 137.314 74.5779 137.296 74.5736C137.262 74.5766 137.23 74.5872 137.201 74.6045C137.123 74.6682 137.164 74.6737 137.165 74.6153C137.175 74.5538 137.179 74.4914 137.177 74.4291C137.166 74.1143 137.129 73.801 137.066 73.4925C136.939 72.8506 136.796 72.2006 136.638 71.5539L136.634 71.5362C136.624 71.4964 136.628 71.4546 136.646 71.4177C136.664 71.3809 136.694 71.3514 136.731 71.3343C136.768 71.3172 136.81 71.3135 136.85 71.324C136.89 71.3344 136.924 71.3582 136.948 71.3914C137.121 71.667 137.375 71.8823 137.675 72.0077C137.749 72.0279 137.826 72.0268 137.899 72.0044C137.972 71.982 138.037 71.9393 138.086 71.8813C138.147 71.8211 138.2 71.7539 138.245 71.6809L138.362 71.4428L138.294 71.7037C138.262 71.791 138.22 71.8743 138.169 71.9516C138.114 72.0386 138.036 72.1085 137.943 72.1533C137.85 72.1982 137.747 72.2163 137.645 72.2055C137.447 72.1798 137.26 72.1041 137.1 71.9855C136.943 71.8771 136.798 71.7516 136.668 71.6115L136.978 71.4491C137.212 72.0776 137.44 72.7098 137.616 73.3673C137.714 73.7064 137.782 74.0533 137.82 74.4042C137.828 74.5084 137.826 74.6131 137.813 74.7168C137.807 74.8046 137.781 74.8899 137.739 74.9669C137.696 75.0439 137.638 75.1108 137.567 75.163C137.469 75.2286 137.351 75.2575 137.234 75.2446C137.192 75.2424 137.151 75.2349 137.111 75.2222C137.078 75.2136 137.045 75.2025 137.013 75.189C136.914 75.1468 136.819 75.0945 136.731 75.033C136.447 74.8277 136.178 74.6037 135.924 74.3624L135.559 74.0298C135.495 73.9705 135.445 73.9344 135.37 73.8607C135.288 73.7841 135.216 73.6982 135.155 73.6048C134.802 72.984 134.556 72.3081 134.428 71.6055C134.273 70.9421 134.162 70.2766 134.072 69.6097C133.976 68.9439 133.912 68.2757 133.856 67.6078C133.744 66.2722 133.703 64.9315 133.735 63.5915Z" fill="black"/>
<path d="M136.643 71.5979C136.483 71.2749 136.342 70.9424 136.223 70.6022C136.104 70.2656 136.004 69.9226 135.924 69.5747C135.756 68.8835 135.709 68.1685 135.784 67.4612C135.772 68.1623 135.882 68.8602 136.108 69.524C136.216 69.8544 136.344 70.1784 136.489 70.4944C136.631 70.8076 136.793 71.1118 136.973 71.4053L136.977 71.4106C137.003 71.4537 137.012 71.5057 137.001 71.5552C136.989 71.6046 136.958 71.6474 136.915 71.6743C136.872 71.7011 136.82 71.7097 136.771 71.6982C136.721 71.6867 136.679 71.656 136.652 71.6129C136.649 71.6081 136.646 71.6028 136.643 71.5979Z" fill="black"/>
<path d="M155.552 64.1903C155.972 65.3923 156.5 66.5539 157.13 67.6611C157.449 68.1877 157.82 68.6812 158.237 69.1343C158.685 69.5898 159.175 70.001 159.701 70.3621C159.026 70.2621 158.387 69.9937 157.843 69.5816C157.296 69.164 156.832 68.6468 156.476 68.0571C156.13 67.4733 155.873 66.8415 155.712 66.1823C155.542 65.533 155.487 64.8586 155.552 64.1903Z" fill="black"/>
<path d="M128.77 142.088C128.96 141.641 129.23 141.232 129.565 140.88C129.701 140.737 129.887 140.649 130.084 140.636C130.269 140.645 130.445 140.715 130.585 140.835C130.918 141.159 131.21 141.522 131.456 141.916C131.739 142.321 132.029 142.734 132.354 143.139C132.694 143.566 133.113 143.924 133.588 144.193C134.081 144.445 134.63 144.565 135.182 144.541C135.363 144.541 135.545 144.53 135.724 144.507C133.118 145.019 130.149 144.851 128.77 142.088Z" fill="black"/>
<path d="M150.474 133.319C150.142 133.002 149.794 132.387 149.557 131.225C148.957 128.321 147.081 130.285 147.081 130.285C144.126 132.939 143.534 130.532 141.957 129.517C141.497 129.221 139.313 129.177 138.629 130.713C138.37 131.21 138.026 131.658 137.612 132.035C138.031 132 138.453 132.031 138.862 132.127C139.269 132.22 139.664 132.361 140.039 132.547C140.423 132.737 140.773 132.991 141.074 133.296C141.402 133.601 141.597 134.022 141.617 134.469C141.352 134.182 141.039 133.943 140.692 133.762C140.367 133.575 140.035 133.399 139.691 133.228C139.347 133.056 139.003 132.876 138.652 132.689C138.291 132.494 137.944 132.276 137.612 132.035H137.608C136.99 132.63 136.327 133.177 135.625 133.671C136.027 133.582 136.443 133.584 136.844 133.675C137.248 133.761 137.634 133.915 137.987 134.129C138.346 134.344 138.66 134.625 138.912 134.959C139.167 135.288 139.334 135.677 139.397 136.09C139.057 135.841 138.789 135.589 138.484 135.383C138.196 135.167 137.898 134.967 137.589 134.783C136.978 134.401 136.336 134.083 135.625 133.671H135.621C135.09 134.053 134.704 134.297 134.704 134.297C134.257 134.519 133.845 134.737 133.459 134.955C133.884 134.962 134.304 135.045 134.701 135.199C135.101 135.343 135.478 135.543 135.82 135.795C136.177 136.044 136.484 136.358 136.726 136.72C136.982 137.085 137.111 137.524 137.093 137.97C136.849 137.656 136.574 137.37 136.271 137.114C135.988 136.861 135.679 136.64 135.369 136.411C134.754 135.952 134.101 135.532 133.459 134.955H133.455C127.265 138.432 128.472 141.382 128.472 141.382C128.555 141.624 128.655 141.86 128.77 142.089C128.82 141.57 128.997 141.071 129.286 140.637C129.46 140.384 129.724 140.207 130.023 140.14C130.104 140.124 130.186 140.118 130.268 140.121L130.505 140.163C130.651 140.21 130.792 140.273 130.925 140.35L131.262 140.606C131.361 140.702 131.449 140.801 131.544 140.9C131.732 141.099 131.873 141.29 132.037 141.489C132.347 141.886 132.633 142.287 132.943 142.651C133.2 143.021 133.538 143.33 133.93 143.554C134.321 143.778 134.758 143.912 135.209 143.946C136.187 143.995 137.168 143.942 138.136 143.789H138.14C139.509 143.186 140.759 142.342 141.831 141.298C144.616 138.631 148.121 138.21 150.268 136.602C150.314 136.567 150.356 136.533 150.402 136.498C150.636 136.308 150.827 136.068 150.96 135.797C151.093 135.525 151.165 135.228 151.172 134.926C151.179 134.623 151.12 134.323 151 134.046C150.879 133.768 150.7 133.52 150.474 133.319ZM146.187 134.42C145.537 135.129 144.806 135.76 144.009 136.3C143.606 136.581 143.176 136.82 142.725 137.014C142.983 136.597 143.283 136.206 143.619 135.849C143.945 135.495 144.291 135.159 144.655 134.844C145.017 134.529 145.399 134.237 145.797 133.969C146.199 133.686 146.629 133.447 147.081 133.254C146.823 133.672 146.523 134.062 146.187 134.42Z" fill="black"/>
<path d="M141.617 127.039C141.671 127.58 141.653 128.126 141.564 128.662C141.492 129.201 141.347 129.728 141.134 130.228C141.079 129.687 141.097 129.141 141.187 128.605C141.261 128.066 141.405 127.54 141.617 127.039Z" fill="black"/>
<path d="M148.309 131.113C148.284 130.55 148.332 129.988 148.45 129.437C148.552 128.884 148.726 128.346 148.966 127.837C148.991 128.399 148.944 128.963 148.825 129.513C148.722 130.066 148.548 130.603 148.309 131.113Z" fill="black"/>
<path d="M158.173 115.473C157.851 114.971 157.579 114.439 157.36 113.884C157.325 113.792 157.287 113.696 157.249 113.601C157.172 113.395 157.096 113.188 157.027 112.978C157.146 112.963 157.264 112.947 157.383 112.928C157.459 113.104 157.532 113.284 157.604 113.463C157.646 113.574 157.688 113.685 157.726 113.796C157.93 114.339 158.08 114.901 158.173 115.473Z" fill="black"/>
<path d="M162.79 110.058C163.127 110.422 163.408 110.832 163.627 111.277C163.859 111.714 164.027 112.183 164.123 112.668C163.786 112.306 163.504 111.895 163.286 111.45C163.055 111.013 162.887 110.544 162.79 110.058Z" fill="black"/>
<path d="M140.165 33.7719C141.436 33.9075 142.686 34.1023 143.94 34.235C144.562 34.3103 145.188 34.3522 145.814 34.3604C146.123 34.3654 146.431 34.3386 146.734 34.2804C146.884 34.2543 147.027 34.2025 147.159 34.1273C147.289 34.0444 147.386 33.9187 147.434 33.7719C147.429 33.855 147.407 33.9362 147.371 34.0109C147.334 34.0857 147.283 34.1525 147.221 34.2076C147.092 34.3159 146.946 34.4011 146.789 34.4595C146.479 34.5681 146.156 34.6349 145.829 34.6582C145.185 34.7058 144.539 34.6912 143.899 34.6147C142.626 34.4759 141.374 34.1932 140.165 33.7719Z" fill="black"/>
<path d="M106.391 111.081C105.186 109.027 104.494 106.714 104.375 104.336C101.739 58.713 88.7605 57.7491 88.7605 57.7491C87.1097 63.3571 84.0527 61.6701 84.0527 61.6701L73.7725 73.5539L78.0464 83.6595L78.0561 83.6791C79.2111 84.6789 80.3302 84.7798 81.397 84.2392H81.4002C82.7738 83.5488 84.0593 81.7967 85.224 79.5268C84.7378 76.9409 83.3382 68.519 85.1326 65.3763C85.1326 65.3763 88.9008 60.6606 91.3314 62.8719C91.5196 63.0782 91.7212 63.2718 91.935 63.4516C94.979 65.9918 95.1095 73.365 94.7636 81.7348L95.0964 88.385C95.0964 88.385 95.514 93.0552 95.6836 99.0345C95.8533 105.014 96.9071 106.248 97.7195 107.127C97.7195 107.127 101.181 110.56 103.305 111.7C105.429 112.836 106.336 113.905 105.426 114.286C105.426 114.286 105.344 114.95 104.822 114.764C104.822 114.764 104.375 116.145 103.468 115.553C103.461 115.592 103.451 115.632 103.439 115.67C103.894 115.803 104.357 115.911 104.825 115.992C107.281 116.359 109.789 116.14 112.143 115.354C109.468 115.116 107.605 113.117 106.391 111.081ZM76.2487 75.6415C75.9578 75.5986 75.6771 75.5037 75.42 75.3614C75.1662 75.2258 74.9287 75.062 74.712 74.8729C74.4945 74.6867 74.3045 74.4707 74.1476 74.2313C74.6402 74.5179 75.0937 74.8273 75.5734 75.0748C76.035 75.354 76.5637 75.5037 77.1035 75.5079C76.8409 75.6448 76.5406 75.6918 76.2487 75.6415ZM84.3104 76.2896C84.0846 76.4825 83.8014 76.5959 83.5046 76.612C83.2123 76.6353 82.9183 76.6055 82.6367 76.5241C82.3581 76.4512 82.0895 76.344 81.8374 76.2049C81.5838 76.0731 81.3499 75.9064 81.1425 75.7099C81.6874 75.8792 82.1963 76.0779 82.7183 76.2114C83.2322 76.3806 83.7824 76.4077 84.3104 76.2896Z" fill="black"/>
<path d="M61.1762 47.4819V47.5242L61.1827 47.4786C61.1794 47.4819 61.1795 47.4819 61.1762 47.4819ZM63.5644 42.675C60.5041 41.9552 59.5482 44.8146 59.5482 44.8146L59.5449 44.8179C60.292 45.1142 61.0327 45.3813 61.4927 45.5409C61.4927 45.5409 62.2561 44.1665 63.1435 45.3096L62.3475 50.3055C62.3475 50.3055 61.1012 50.2859 60.8532 49.5466L60.5759 49.1689C60.3997 49.7486 60.4487 50.2794 59.9919 50.1882C59.9166 50.5023 59.8038 50.8063 59.6559 51.0936C59.7375 52.139 62.3214 52.4679 62.3214 52.4679C62.3176 52.4982 62.3154 52.5286 62.3148 52.5591C62.3148 53.1518 63.2283 53.6924 63.8287 53.7869L68.7486 54.5685C68.8984 54.5928 69.0515 54.5873 69.1992 54.5523C69.3469 54.5172 69.4861 54.4534 69.6089 54.3644C69.7318 54.2754 69.8357 54.163 69.9148 54.0337C69.9939 53.9044 70.0466 53.7607 70.0699 53.611L71.6098 43.9516L63.5644 42.675ZM69.0748 44.9872C68.5033 45.0265 67.9292 44.987 67.3685 44.87C66.8137 44.7453 66.2736 44.563 65.7568 44.3261C65.2421 44.0922 64.7551 43.8016 64.305 43.4598C64.8172 43.6976 65.3359 43.8995 65.8547 44.0916C66.3714 44.2793 66.9 44.4327 67.437 44.5508C67.9713 44.6649 68.5155 44.726 69.0617 44.7332C69.6148 44.7203 70.1635 44.6327 70.693 44.4727C70.1963 44.757 69.6447 44.9324 69.0748 44.9872H69.0748Z" fill="black"/>
<path d="M79.8739 57.0087C79.4076 58.5281 79.0448 60.0773 78.7878 61.6455C78.6634 62.4252 78.5918 63.2123 78.5736 64.0016C78.5386 64.7773 78.6493 65.5527 78.9 66.2877C79.0257 66.6369 79.2388 66.9481 79.5191 67.1917C79.645 67.309 79.7962 67.3957 79.9611 67.4452C80.126 67.4946 80.3001 67.5054 80.4699 67.4767C80.8202 67.3754 81.1335 67.1749 81.372 66.8994C81.6356 66.6167 81.8697 66.308 82.0708 65.9781C82.8726 64.6145 83.5064 63.1592 83.9582 61.6437L83.9591 61.6407C83.9672 61.6154 83.985 61.5943 84.0087 61.5821C84.0323 61.5699 84.0599 61.5676 84.0852 61.5757L84.0928 61.5784C84.4871 61.7535 84.9165 61.8355 85.3477 61.818C85.7789 61.7845 86.1921 61.6315 86.5408 61.3764C87.2298 60.8278 87.766 60.1117 88.0977 59.2966C88.4597 58.4912 88.7427 57.6527 88.9427 56.7928C89.1491 55.9351 89.3022 55.0655 89.4012 54.189L89.4844 54.3166C88.943 54.1139 88.4799 53.7453 88.1613 53.2637C87.8378 52.8095 87.5671 52.3201 87.3544 51.8049C86.9274 50.7852 86.6122 49.7223 86.4144 48.6349L86.7788 48.6876C86.4557 49.3318 86.09 49.9538 85.6841 50.5495C85.2814 51.1509 84.8256 51.7152 84.3221 52.2355C83.8123 52.7735 83.2032 53.2081 82.5283 53.5156C82.1755 53.6648 81.798 53.7474 81.4149 53.7592C81.0281 53.766 80.644 53.692 80.2875 53.5419C80.2425 53.5232 80.2056 53.4891 80.1835 53.4457L80.1804 53.4397C80.0363 53.1508 79.8492 52.8853 79.6254 52.6523C79.5412 52.5447 79.4292 52.4622 79.3014 52.4136C79.1737 52.3649 79.0351 52.352 78.9005 52.3762C78.6285 52.4919 78.4111 52.7071 78.2928 52.9776C78.1614 53.2731 78.092 53.5923 78.0889 53.9155C78.0171 54.579 78.1048 55.25 78.3447 55.8729C78.4685 56.1676 78.6766 56.4194 78.9428 56.5968C79.2211 56.7618 79.5355 56.8565 79.8588 56.8725L79.8649 56.8731C79.8929 56.8755 79.9195 56.8869 79.9405 56.9055C79.9615 56.9242 79.9759 56.9491 79.9815 56.9766C80.0693 57.3887 80.1934 57.7922 80.3524 58.1824C80.5112 58.5748 80.7042 58.9524 80.9291 59.3111C81.16 59.6662 81.4359 59.9902 81.7499 60.2748C82.0736 60.5518 82.4425 60.7712 82.8406 60.9237C82.8432 60.9245 82.8456 60.9258 82.8476 60.9275C82.8497 60.9293 82.8514 60.9314 82.8527 60.9338C82.8539 60.9362 82.8547 60.9389 82.8549 60.9416C82.8551 60.9443 82.8548 60.947 82.854 60.9496C82.852 60.9546 82.8482 60.9588 82.8434 60.9612C82.8385 60.9637 82.8329 60.9642 82.8277 60.9628C82.4142 60.8269 82.0272 60.6212 81.6834 60.3546C81.3463 60.0776 81.0464 59.7582 80.7912 59.4044C80.542 59.0467 80.3284 58.6655 80.1535 58.2663C79.9747 57.8667 79.8321 57.452 79.7273 57.0271L79.8501 57.1311C79.4773 57.1249 79.1118 57.0267 78.7863 56.8453C78.4633 56.6467 78.208 56.3553 78.0539 56.0093C77.7762 55.3404 77.6636 54.6148 77.7255 53.8934C77.7284 53.2095 77.958 52.3255 78.7778 51.989C78.9897 51.918 79.2206 51.9287 79.425 52.0189C79.6082 52.1 79.7748 52.2142 79.9164 52.3558C80.1762 52.6214 80.3931 52.9258 80.5593 53.2579L80.4523 53.1558C80.7564 53.2793 81.0826 53.3399 81.4109 53.3337C81.7392 53.3275 82.0628 53.2548 82.362 53.1199C82.9824 52.8297 83.5426 52.4257 84.0135 51.9289C84.5047 51.4324 84.9505 50.893 85.3455 50.3172C85.7467 49.7424 86.1094 49.1417 86.4312 48.5192L86.4328 48.5161C86.4513 48.4801 86.4808 48.4507 86.5169 48.4323C86.5531 48.4139 86.5942 48.4073 86.6344 48.4134C86.6745 48.4196 86.7117 48.4383 86.7406 48.4667C86.7696 48.4952 86.7888 48.532 86.7956 48.5719C86.8851 49.0971 87.0106 49.6272 87.1485 50.1474C87.2863 50.6681 87.4545 51.1804 87.6524 51.6815C87.8438 52.1806 88.0913 52.6563 88.3902 53.0996C88.6657 53.5431 89.0741 53.8887 89.5575 54.0874L89.5623 54.089C89.588 54.0976 89.6099 54.1149 89.6243 54.1379C89.6386 54.161 89.6444 54.1882 89.6408 54.2151C89.5186 55.0986 89.3409 55.9737 89.1088 56.835C88.8865 57.6988 88.589 58.5415 88.2197 59.3535C87.8676 60.184 87.3206 60.9178 86.6248 61.493C86.2567 61.769 85.8188 61.9371 85.3603 61.9785C84.9018 62.0068 84.4427 61.9332 84.0162 61.7628L84.1507 61.6975C83.9378 62.4713 83.6872 63.2316 83.399 63.9785C83.1184 64.7341 82.7719 65.4637 82.3634 66.1588C82.1529 66.5116 81.9071 66.842 81.6295 67.145C81.3446 67.4765 80.9681 67.7169 80.5471 67.8362C80.3228 67.8773 80.092 67.8653 79.8732 67.8011C79.6544 67.7369 79.4538 67.6223 79.2875 67.4666C78.9651 67.1814 78.7211 66.8187 78.5788 66.4129C78.3209 65.6342 78.2124 64.8139 78.2587 63.9951C78.291 63.1919 78.3851 62.3923 78.5401 61.6035C78.8395 60.0333 79.2727 58.4916 79.835 56.995C79.8369 56.9899 79.8407 56.9857 79.8457 56.9835C79.8507 56.9812 79.8564 56.981 79.8615 56.9829C79.8664 56.9849 79.8704 56.9886 79.8727 56.9934C79.875 56.9982 79.8754 57.0036 79.8739 57.0087Z" fill="black"/>
<path d="M78.0107 53.0519C79.1641 50.8459 80.3688 53.3479 80.3688 53.3479C83.6225 54.7318 86.6039 48.6025 86.6039 48.6025C86.6039 48.6025 87.4213 53.5343 89.5199 54.2011C89.7257 53.279 89.8159 52.3349 89.7886 51.3905C89.7649 50.2989 89.4342 49.2359 88.8342 48.323C88.2342 47.41 87.3891 46.6839 86.3954 46.2276C84.9187 45.5784 83.2681 45.4362 81.7019 45.8231C76.8501 46.92 78.0107 53.0519 78.0107 53.0519Z" fill="black"/>
<path d="M78.4344 56.3716C77.7241 56.2304 76.9931 56.229 76.2823 56.3675C75.5648 56.4743 74.8528 56.6228 74.145 56.7888C72.7296 57.1243 71.3332 57.5413 69.9385 57.961C68.5442 58.3838 67.1657 58.8584 65.7829 59.3199C64.4011 59.7834 63.0237 60.2663 61.6483 60.7458L61.7668 60.5268L62.5565 64.5174C62.8408 65.843 63.1034 67.1733 63.4054 68.4951L63.2859 68.4333L64.5828 67.8931L65.8901 67.3768L67.2065 66.8814C67.6506 66.7307 68.0906 66.5669 68.5389 66.4268C69.4301 66.1301 70.3361 65.8758 71.2569 65.6641C71.7167 65.5579 72.1834 65.4764 72.6533 65.4065C73.1345 65.3313 73.6215 65.3002 74.1084 65.3135C74.1385 65.3151 74.1679 65.3225 74.1952 65.3353C74.2224 65.3482 74.2468 65.3663 74.2669 65.3886C74.2871 65.4109 74.3027 65.437 74.3129 65.4653C74.323 65.4936 74.3274 65.5236 74.3259 65.5537C74.3254 65.5635 74.3242 65.5734 74.3225 65.5831L74.3188 65.6026C74.0667 66.9437 73.8287 68.289 73.7056 69.637C73.6368 70.3043 73.6196 70.9758 73.6542 71.6456C73.674 72.2946 73.8215 72.9334 74.0883 73.5256C74.4087 74.1103 74.783 74.6638 75.2065 75.179C75.6146 75.7502 75.972 76.3558 76.2746 76.9889C76.8694 78.2383 77.3775 79.527 77.7955 80.8458L77.7605 80.7789C77.9734 81.0369 78.2322 81.2534 78.5239 81.4176C78.8336 81.584 79.1571 81.7236 79.4908 81.8348C80.1757 82.0565 80.8788 82.2178 81.592 82.3168C83.0348 82.5161 84.4885 82.6268 85.9449 82.6481C85.9521 82.6482 85.9589 82.6511 85.964 82.6562C85.969 82.6613 85.9719 82.6681 85.972 82.6753C85.9721 82.6824 85.9693 82.6894 85.9644 82.6945C85.9594 82.6997 85.9526 82.7028 85.9454 82.703C84.4813 82.7796 83.0134 82.7494 81.5536 82.6128C80.8159 82.5415 80.0858 82.4056 79.3719 82.2066C78.6125 82.0289 77.9244 81.6269 77.3972 81.0532C77.3842 81.0377 77.3741 81.0201 77.3674 81.0011L77.3622 80.9861C76.9159 79.7035 76.3867 78.451 75.7781 77.2367C75.4825 76.6359 75.1351 76.062 74.7396 75.5215C74.2857 74.9828 73.8896 74.398 73.5579 73.7768C73.2575 73.1171 73.0939 72.4035 73.0769 71.6791C73.0504 70.9799 73.0779 70.2798 73.1593 69.5849C73.3074 68.2057 73.5618 66.8517 73.8431 65.5059L74.0535 65.795C73.6049 65.7755 73.1554 65.7946 72.71 65.8522C72.2531 65.9087 71.7953 65.9764 71.341 66.0696C70.431 66.2463 69.5241 66.4608 68.6295 66.7223C68.1797 66.8442 67.7378 66.9941 67.2912 67.1287L65.9652 67.5782C65.5265 67.738 65.0895 67.9024 64.654 68.0712L63.354 68.5942L63.3519 68.595C63.3306 68.6036 63.3067 68.6034 63.2855 68.5944C63.2643 68.5854 63.2475 68.5683 63.2389 68.547L63.2344 68.5324C62.9565 67.2054 62.6391 65.887 62.3434 64.5639L61.3931 60.6083C61.3827 60.565 61.3882 60.5193 61.4085 60.4797C61.4289 60.44 61.4629 60.409 61.5042 60.3922L61.5116 60.3892C62.8689 59.8375 64.2436 59.3411 65.626 58.861C67.008 58.381 68.4084 57.9541 69.8133 57.5425C71.2179 57.1295 72.6402 56.7712 74.0802 56.4886C74.7997 56.3393 75.5274 56.232 76.2595 56.1673C76.9935 56.0649 77.7409 56.117 78.4536 56.3202C78.4603 56.3225 78.4658 56.3273 78.4689 56.3336C78.4721 56.3399 78.4727 56.3472 78.4706 56.3539C78.4686 56.3607 78.464 56.3664 78.4578 56.3698C78.4517 56.3732 78.4444 56.3742 78.4376 56.3724L78.4344 56.3716Z" fill="black"/>
<path d="M94.7785 82.1829C94.7434 82.1828 94.7097 82.1693 94.6843 82.1453C94.6588 82.1212 94.6435 82.0884 94.6414 82.0534C94.6394 82.0185 94.6508 81.9841 94.6733 81.9572C94.6958 81.9304 94.7278 81.9132 94.7626 81.909C96.8614 81.6632 98.4833 81.4161 99.0439 81.3276C98.3068 79.9718 97.9018 74.4828 97.884 74.2363C96.9237 60.9312 88.7963 57.9076 88.7143 57.8786C88.6973 57.8726 88.6816 57.8633 88.6681 57.8513C88.6547 57.8392 88.6438 57.8246 88.636 57.8084C88.6203 57.7755 88.6183 57.7378 88.6304 57.7035C88.6426 57.6691 88.6679 57.641 88.7008 57.6253C88.7337 57.6096 88.7715 57.6076 88.8059 57.6197C88.8895 57.6493 97.1843 60.7219 98.1583 74.2166C98.2849 75.9671 98.7514 80.6588 99.3792 81.3359C99.396 81.3541 99.4076 81.3765 99.4128 81.4007C99.4179 81.425 99.4164 81.4502 99.4083 81.4736C99.4003 81.497 99.3861 81.5179 99.3671 81.5339C99.3482 81.5499 99.3253 81.5605 99.3008 81.5646C99.2822 81.5674 97.4059 81.8756 94.7947 82.1819C94.7894 82.1825 94.7839 82.1828 94.7785 82.1829Z" fill="black"/>
<path d="M61.6651 60.9525C60.8191 61.165 59.9699 61.3621 59.1219 61.5646C59.0946 61.5711 59.0659 61.5666 59.042 61.5519C59.0182 61.5373 59.0011 61.5138 58.9946 61.4866L58.994 61.4841L58.9926 61.4775C58.6751 59.9577 58.3846 58.4331 58.0792 56.9111L57.2197 52.3351C57.212 52.2941 57.2162 52.2517 57.2319 52.213C57.2475 52.1743 57.274 52.1409 57.3081 52.1167C57.3422 52.0926 57.3825 52.0787 57.4243 52.0767C57.4661 52.0747 57.5075 52.0846 57.5438 52.1054L57.6574 52.1708C57.6649 52.1747 57.6706 52.1814 57.6732 52.1895C57.6762 52.1903 57.6676 52.1786 57.6608 52.1847C57.6426 52.1724 57.6401 52.1855 57.6671 52.1704C57.7448 52.1239 57.8136 52.0639 57.8701 51.9933C58.0164 51.8197 58.1461 51.6329 58.2578 51.4354L58.2608 51.4304C58.2943 51.374 58.3489 51.3332 58.4126 51.317C58.4763 51.3008 58.5438 51.3106 58.6003 51.3441L58.624 51.36C58.6711 51.4058 58.7282 51.44 58.7908 51.4599C58.8534 51.4798 58.9198 51.4848 58.9847 51.4746C59.1262 51.4198 59.2452 51.319 59.3223 51.1885C59.5286 50.8658 59.6791 50.5109 59.7677 50.1385L59.7707 50.1271C59.7856 50.0703 59.8219 50.0215 59.8721 49.9909C59.9222 49.9604 59.9823 49.9504 60.0397 49.9632C60.0871 49.9765 60.1368 49.98 60.1856 49.9735C60.1795 49.9813 60.1992 49.9702 60.2279 49.8965C60.2798 49.7571 60.3224 49.5584 60.3824 49.3775L60.3737 49.4245C60.4059 49.0813 60.4506 48.7465 60.4764 48.4169C60.4903 48.2559 60.4951 48.0943 60.4905 47.9328C60.4904 47.7915 60.4623 47.6515 60.408 47.5209L60.4034 47.5116C60.3893 47.4828 60.3828 47.4508 60.3845 47.4188C60.3896 47.368 60.4141 47.3212 60.4528 47.288C60.4787 47.2661 60.5099 47.2514 60.5432 47.2451L60.5685 47.2421C60.5808 47.2408 60.5932 47.2404 60.6055 47.2409L60.6538 47.2429L60.7372 47.2501L60.8949 47.2682L61.0497 47.2884L61.1264 47.2989L61.1642 47.304L61.1821 47.3064L61.1905 47.3075C61.1905 47.3075 61.194 47.3078 61.1904 47.3075C61.1513 47.3042 61.1123 47.3159 61.0815 47.3402L61.1611 47.3089C61.2486 47.2913 61.3398 47.2806 61.4252 47.2592C61.5073 47.2364 61.5864 47.204 61.6608 47.1625C61.7331 47.1267 61.7976 47.0769 61.8506 47.0161C61.9036 46.9553 61.944 46.8847 61.9696 46.8083C62.0529 46.4566 62.0097 46.0868 61.8475 45.7636L61.9196 45.8264C61.3761 45.6296 60.84 45.4098 60.2978 45.2091C59.7561 45.0065 59.216 44.7996 58.6876 44.5611C58.4227 44.4437 58.1592 44.3226 57.8999 44.1906C57.6333 44.0644 57.3789 43.9139 57.14 43.7411C57.0761 43.6916 57.0191 43.6337 56.9708 43.569C56.932 43.5136 56.8895 43.4609 56.8435 43.4113C56.7515 43.3113 56.6451 43.2258 56.5276 43.1575C56.2907 43.02 56.0259 42.9375 55.7527 42.9161L55.7789 42.9135C55.4403 43.0508 55.1631 43.3061 54.9988 43.6319C54.8294 43.9687 54.7186 44.3318 54.6714 44.7057L54.4877 45.8563C54.4298 46.2558 54.308 46.6435 54.1269 47.0045C53.7458 47.6603 53.4827 48.3777 53.3498 49.1242C53.2945 49.4831 53.3085 49.8493 53.3908 50.203C53.4358 50.3773 53.4967 50.5471 53.5727 50.7103C53.6541 50.8881 53.7357 51.0658 53.8128 51.2486C53.9987 51.6261 54.107 52.037 54.1313 52.4569C54.1111 52.8575 54.0589 53.2559 53.9754 53.6482L53.5688 55.9435L52.7484 60.5335C52.6124 61.2919 52.4589 62.076 52.3374 62.8133C52.2337 63.5542 52.2465 64.3067 52.3754 65.0436C52.6322 66.5344 53.3712 67.9001 54.4793 68.9318C54.7196 69.1929 55.0313 69.378 55.3758 69.464C55.7358 69.5628 56.1054 69.6228 56.4782 69.643C56.8541 69.6613 57.2309 69.6399 57.6022 69.5791C57.9788 69.5095 58.351 69.4179 58.7168 69.3047C60.2135 68.8803 61.7199 68.4879 63.2214 68.0794C63.2283 68.0775 63.2357 68.0784 63.242 68.0819C63.2483 68.0854 63.2529 68.0911 63.255 68.098C63.2571 68.1049 63.2564 68.1122 63.253 68.1186C63.2497 68.1249 63.244 68.1297 63.2372 68.132C61.759 68.618 60.2857 69.1202 58.8026 69.5903C58.43 69.7216 58.0499 69.8308 57.6644 69.9174C57.2701 69.9979 56.8684 70.0365 56.4661 70.0326C56.0606 70.0284 55.6572 69.9756 55.2644 69.8755C55.0562 69.8265 54.8556 69.7495 54.6682 69.6466C54.486 69.5383 54.3173 69.4089 54.1656 69.261C52.9513 68.1843 52.1288 66.7362 51.8264 65.1433C51.6784 64.3492 51.6555 63.5368 51.7588 62.7356C51.8145 62.3292 51.89 61.9577 51.9598 61.5741L52.1714 60.4297L53.0383 55.8551L53.4754 53.5681C53.5573 53.2016 53.6135 52.8298 53.6438 52.4554C53.6273 52.0977 53.5401 51.7467 53.3872 51.4228C53.3176 51.246 53.2413 51.0688 53.1651 50.8916C53.0818 50.7005 53.0162 50.5022 52.9692 50.2991C52.8826 49.8924 52.8769 49.4726 52.9525 49.0637C53.118 48.2823 53.4198 47.536 53.844 46.8588C54.0245 46.5304 54.1491 46.1742 54.2126 45.805L54.432 44.6611C54.4956 44.2649 54.6263 43.8824 54.8185 43.5299C55.0131 43.1577 55.3396 42.8711 55.7343 42.7262C55.7419 42.7237 55.7499 42.7227 55.7579 42.7234L55.7606 42.7236C56.0652 42.7492 56.3599 42.8441 56.622 43.001C56.7535 43.0796 56.8724 43.1774 56.9748 43.2912C57.0262 43.3479 57.0737 43.4081 57.1167 43.4714C57.1548 43.5222 57.1994 43.5678 57.2493 43.6071C57.7202 43.9277 58.227 44.1923 58.7593 44.3957C59.2871 44.6243 59.8285 44.8222 60.3713 45.0158C60.913 45.212 61.4522 45.4136 62.0028 45.5857C62.0181 45.5905 62.0323 45.5983 62.0445 45.6087C62.0567 45.6191 62.0667 45.6318 62.0738 45.6461L62.0751 45.6486C62.1693 45.8378 62.2371 46.039 62.2764 46.2466C62.322 46.4637 62.3148 46.6886 62.2554 46.9023C62.187 47.1297 62.0337 47.3221 61.8273 47.4399C61.7312 47.4988 61.6284 47.5459 61.5211 47.58C61.4164 47.6111 61.3106 47.6283 61.2047 47.6521L61.2842 47.6208C61.2478 47.645 61.2043 47.6562 61.1608 47.6525L61.1559 47.6521L61.1451 47.6511L61.1246 47.6491L61.0857 47.6453L61.009 47.6378L60.8569 47.6237L60.7071 47.6121L60.6364 47.6086L60.6075 47.6084C60.602 47.6083 60.5988 47.6088 60.606 47.6085L60.612 47.6072C60.6421 47.6012 60.6702 47.5876 60.6936 47.5677C60.7117 47.5519 60.7264 47.5326 60.7367 47.5109C60.747 47.4892 60.7527 47.4656 60.7535 47.4416L60.7299 47.3396C60.8191 47.5168 60.8697 47.7108 60.8784 47.909C60.8903 48.0858 60.892 48.2632 60.8834 48.4402C60.8691 48.7868 60.8366 49.1251 60.8181 49.4573C60.8174 49.4707 60.8152 49.4839 60.8116 49.4969L60.8095 49.5044C60.7597 49.6796 60.7281 49.8476 60.6548 50.0594C60.6325 50.1226 60.6016 50.1824 60.5631 50.2373C60.5108 50.3109 60.4383 50.3678 60.3542 50.4011C60.2231 50.445 60.0821 50.4505 59.9479 50.4169L60.2198 50.2417C60.1688 50.454 60.1029 50.6626 60.0225 50.8657C59.942 51.0749 59.8388 51.2747 59.7148 51.4614C59.5768 51.6869 59.364 51.857 59.1133 51.9421C58.9685 51.9814 58.8154 51.9788 58.672 51.9344C58.5459 51.8932 58.4278 51.8307 58.3227 51.7496L58.6889 51.6742C58.5602 51.9049 58.4067 52.121 58.2311 52.3185C58.1308 52.4374 58.0077 52.5351 57.8691 52.606C57.7601 52.6589 57.6358 52.671 57.5185 52.6404C57.4575 52.6161 57.4007 52.5821 57.3504 52.5398C57.3145 52.5005 57.2809 52.4591 57.25 52.4157L57.6877 52.2514L58.4741 56.8405C58.7174 58.3735 58.9755 59.9039 59.2067 61.4392L59.0775 61.3521C59.936 61.1994 60.7933 61.0414 61.6539 60.8988C61.6608 60.8977 61.668 60.8993 61.6738 60.9033C61.6796 60.9073 61.6837 60.9134 61.6851 60.9203C61.6866 60.9272 61.6853 60.9344 61.6815 60.9404C61.6778 60.9464 61.6719 60.9508 61.665 60.9525L61.6651 60.9525Z" fill="black"/>
<path d="M57.312 45.2186L58.8573 45.8577C59.1146 45.9699 59.373 46.0579 59.6294 46.1903C59.8829 46.3263 60.106 46.5124 60.285 46.7373C60.6482 47.196 60.814 47.78 60.7461 48.3607L60.6414 50.0272C60.6404 50.0452 60.6358 50.0629 60.6278 50.0792C60.6199 50.0954 60.6089 50.11 60.5953 50.1219C60.5818 50.1339 60.566 50.1431 60.5489 50.149C60.5317 50.1549 60.5136 50.1573 60.4956 50.1562C60.4775 50.1551 60.4598 50.1504 60.4436 50.1424C60.4273 50.1344 60.4128 50.1234 60.4008 50.1098C60.3889 50.0962 60.3797 50.0804 60.3739 50.0633C60.3681 50.0461 60.3658 50.028 60.367 50.01L60.3675 50.0044L60.5406 48.3436C60.5838 48.0783 60.5737 47.8071 60.5111 47.5457C60.4485 47.2843 60.3346 47.0379 60.1759 46.8208C60.0158 46.6018 59.8126 46.4178 59.5787 46.2799C59.3453 46.1462 59.0784 46.0412 58.8297 45.9205L57.312 45.2186Z" fill="black"/>
<path d="M56.7788 46.468L57.9061 47.1216L59.0355 47.7808C59.2271 47.9107 59.3822 48.0873 59.4863 48.2938C59.5879 48.5101 59.6354 48.7108 59.7109 48.9177L60.1251 50.1516C60.1367 50.1861 60.1341 50.2238 60.1178 50.2564C60.1015 50.289 60.073 50.3138 60.0384 50.3254C60.0038 50.3369 59.9661 50.3343 59.9334 50.3181C59.9008 50.3019 59.8759 50.2733 59.8643 50.2388L59.8622 50.2319L59.5137 48.9779C59.4518 48.7738 59.4059 48.5476 59.331 48.3672C59.2483 48.1795 59.1191 48.0161 58.9555 47.8923L56.7788 46.468Z" fill="black"/>
<path d="M56.2654 48.2186L57.3176 48.6289C57.6837 48.7704 58 49.0162 58.2272 49.3358C58.4544 49.6554 58.5825 50.0346 58.5956 50.4262L58.6106 51.5565C58.6109 51.5928 58.5968 51.6278 58.5714 51.6537C58.5459 51.6797 58.5112 51.6946 58.4749 51.695C58.4385 51.6955 58.4034 51.6816 58.3773 51.6563C58.3512 51.631 58.3361 51.5964 58.3355 51.5601C58.3355 51.5574 58.3356 51.5539 58.3357 51.5513L58.3894 50.4278C58.3981 50.0663 58.3 49.7102 58.1072 49.404C57.9104 49.0922 57.6266 48.8447 57.2906 48.692L56.2654 48.2186Z" fill="black"/>
<path d="M55.4138 49.5762L56.2502 49.9566C56.4019 50.0095 56.5413 50.0926 56.6597 50.201C56.7782 50.3093 56.8733 50.4407 56.9393 50.5869C57.0016 50.7359 57.0365 50.8949 57.0422 51.0563C57.0562 51.2044 57.0803 51.3513 57.1144 51.4961C57.1334 51.6306 57.1793 51.7599 57.2493 51.8764C57.3193 51.9929 57.4121 52.0941 57.522 52.1742L57.5247 52.1756C57.5407 52.184 57.5549 52.1954 57.5665 52.2093C57.5781 52.2232 57.5868 52.2392 57.5922 52.2564C57.5976 52.2737 57.5995 52.2918 57.5979 52.3098C57.5962 52.3277 57.5911 52.3452 57.5826 52.3612C57.5742 52.3772 57.5628 52.3914 57.5489 52.4029C57.535 52.4145 57.5189 52.4232 57.5017 52.4286C57.4844 52.4339 57.4662 52.4359 57.4482 52.4342C57.4302 52.4326 57.4127 52.4274 57.3967 52.419C57.3923 52.4167 57.388 52.4142 57.3838 52.4114C57.2489 52.3062 57.1372 52.1741 57.0561 52.0236C56.9749 51.873 56.9259 51.7073 56.9123 51.5369C56.8877 51.3812 56.8738 51.2241 56.8706 51.0665C56.8775 50.9212 56.8575 50.7758 56.8115 50.6376C56.7607 50.4997 56.6821 50.3737 56.5807 50.2673C56.4792 50.1609 56.3569 50.0764 56.2214 50.0189L55.4138 49.5762Z" fill="black"/>
<path d="M82.0864 53.4427C82.3221 53.3499 82.5705 53.2933 82.8232 53.2748C83.0761 53.253 83.3307 53.2594 83.5822 53.2939C83.835 53.3284 84.0822 53.3957 84.3177 53.494C84.5537 53.5897 84.7707 53.7268 84.9584 53.8989C84.7135 53.8285 84.4868 53.7491 84.2503 53.6973C84.0172 53.6413 83.7814 53.5972 83.5438 53.5654C83.0683 53.4957 82.5891 53.4714 82.0864 53.4427Z" fill="black"/>
<path d="M87.0012 53.9741C87.2146 53.9096 87.4365 53.8777 87.6594 53.8795C87.8826 53.8781 88.1051 53.9013 88.3232 53.9484C88.7698 54.0322 89.1735 54.2678 89.4657 54.6153C89.259 54.5262 89.0667 54.4457 88.8674 54.3794C88.6667 54.3185 88.4674 54.2602 88.2626 54.2159C87.853 54.1226 87.4374 54.0612 87.0012 53.9741Z" fill="black"/>
<path d="M86.5718 56.6676C86.6043 56.8527 86.5888 57.0432 86.5268 57.2207C86.4664 57.4163 86.3381 57.5841 86.165 57.6939C86.074 57.7458 85.9727 57.7772 85.8682 57.7861C85.7638 57.795 85.6587 57.781 85.5601 57.7452C85.4702 57.7129 85.3841 57.6709 85.3034 57.6199C85.2302 57.5627 85.1612 57.5005 85.0967 57.4337C85.1851 57.4499 85.2725 57.471 85.3585 57.4969C85.4445 57.5072 85.5259 57.5321 85.6053 57.5358C85.7503 57.5572 85.8982 57.5296 86.0256 57.4575C86.1531 57.3754 86.2585 57.2634 86.3327 57.1313C86.421 56.9813 86.5009 56.8265 86.5718 56.6676Z" fill="black"/>
<path d="M83.7926 55.3375C83.8995 55.3338 84.0008 55.2889 84.0751 55.2121C84.1494 55.1353 84.191 55.0327 84.191 54.9259C84.191 54.8191 84.1494 54.7165 84.0751 54.6397C84.0008 54.5629 83.8995 54.5179 83.7926 54.5142C83.6857 54.5179 83.5845 54.5629 83.5101 54.6397C83.4358 54.7165 83.3943 54.8191 83.3943 54.9259C83.3943 55.0327 83.4358 55.1353 83.5101 55.2121C83.5845 55.2889 83.6857 55.3338 83.7926 55.3375Z" fill="black"/>
<path d="M87.5868 55.7403C87.6937 55.7366 87.795 55.6916 87.8693 55.6148C87.9436 55.538 87.9852 55.4354 87.9852 55.3286C87.9852 55.2218 87.9436 55.1192 87.8693 55.0424C87.795 54.9656 87.6937 54.9206 87.5868 54.9169C87.4799 54.9206 87.3786 54.9656 87.3043 55.0424C87.23 55.1192 87.1885 55.2218 87.1885 55.3286C87.1885 55.4354 87.23 55.538 87.3043 55.6148C87.3786 55.6916 87.4799 55.7366 87.5868 55.7403Z" fill="black"/>
<path d="M84.1331 59.0817C84.4829 59.2485 84.8653 59.336 85.253 59.3381C85.4339 59.3294 85.6095 59.2746 85.7631 59.1789C85.9314 59.0739 86.0884 58.9519 86.2316 58.8147C86.1701 59.0223 86.0516 59.2084 85.8894 59.3521C85.8049 59.4274 85.7094 59.4895 85.6062 59.5362C85.4483 59.597 85.2792 59.6233 85.1103 59.613C84.9414 59.6028 84.7766 59.5564 84.6273 59.4769C84.4337 59.3859 84.2643 59.2505 84.1331 59.0817Z" fill="black"/>
<path d="M80.8539 46.0888C80.8539 46.0888 79.7877 41.3845 84.3995 42.3171C89.0113 43.2497 86.3961 46.2282 86.3961 46.2282" fill="black"/>
<path d="M78.0572 83.8142C78.03 83.8142 78.0034 83.806 77.9809 83.7907C77.9659 83.7807 77.953 83.7678 77.943 83.7529C77.933 83.7379 77.926 83.7211 77.9225 83.7034C77.919 83.6857 77.9191 83.6676 77.9226 83.6499C77.9261 83.6323 77.9331 83.6155 77.9432 83.6005C78.2404 83.1575 78.077 81.8955 77.9889 81.4464C77.9854 81.4287 77.9855 81.4105 77.989 81.3929C77.9926 81.3752 77.9996 81.3584 78.0097 81.3435C78.0301 81.3132 78.0616 81.2923 78.0974 81.2853C78.1332 81.2783 78.1703 81.2858 78.2005 81.3061C78.2308 81.3264 78.2517 81.3579 78.2587 81.3936C78.2726 81.4639 78.5926 83.1257 78.1716 83.7532C78.159 83.7719 78.142 83.7873 78.1221 83.798C78.1021 83.8086 78.0799 83.8142 78.0572 83.8142Z" fill="black"/>
<path d="M98.2289 88.1697C98.2031 88.1697 98.1777 88.1625 98.1557 88.1491C98.1336 88.1356 98.1157 88.1163 98.1039 88.0934C97.9618 87.8176 97.6266 83.1154 97.5272 81.6811C97.5259 81.6631 97.5282 81.6451 97.534 81.628C97.5397 81.6109 97.5487 81.5951 97.5606 81.5815C97.5724 81.5679 97.5869 81.5568 97.603 81.5488C97.6192 81.5407 97.6368 81.536 97.6548 81.5348C97.6729 81.5332 97.6911 81.5352 97.7083 81.5408C97.7256 81.5464 97.7415 81.5554 97.7552 81.5672C97.7689 81.5791 97.7801 81.5936 97.7881 81.6099C97.796 81.6262 97.8006 81.6439 97.8015 81.662C97.9673 84.0559 98.2503 87.712 98.3505 87.9725C98.3609 87.9933 98.3658 88.0163 98.3648 88.0395C98.3637 88.0626 98.3568 88.0851 98.3446 88.1049C98.3325 88.1246 98.3155 88.1409 98.2952 88.1523C98.275 88.1636 98.2521 88.1696 98.2289 88.1697V88.1697Z" fill="black"/>
<path d="M90.1347 105.812C90.1523 103.901 89.9476 101.995 89.5247 100.132C88.7514 96.8132 87.2539 89.9122 86.4187 85.5938C84.7721 85.0512 83.097 84.5989 81.4009 84.239H81.3976C79.8642 83.9166 78.6702 83.7375 78.047 83.6593C77.7371 83.617 77.5674 83.6007 77.5674 83.6007C57.4963 64.1907 54.0184 68.7957 54.0184 68.7957C44.6158 72.6809 33.9767 99.0962 33.9767 99.0962L27.5267 100.246C24.2511 100.894 24.3979 102.656 24.9688 103.89C25.6845 105.387 26.1243 106.999 26.2673 108.651C26.7404 114.996 24.2739 114.803 24.2739 114.803C24.2739 114.803 39.6111 117.506 44.2733 114.243C48.9354 110.983 66.005 110.358 66.005 110.358C86.223 111.371 90.2718 109.01 90.2718 109.01C90.4088 108.967 90.5425 108.918 90.6763 108.866C90.2489 108.023 90.1314 106.85 90.1347 105.812ZM52.9972 75.7781C53.3199 76.1597 53.7309 76.457 54.1946 76.6444C54.4257 76.7343 54.6666 76.7966 54.9124 76.83C55.1615 76.8704 55.4137 76.8878 55.666 76.8821C55.9205 76.8788 56.175 76.8365 56.4359 76.8202C56.6904 76.7746 56.9449 76.7193 57.2092 76.6802C56.9678 76.7877 56.7198 76.8756 56.4686 76.9765C56.2108 77.0436 55.9494 77.0958 55.6856 77.1329C55.1399 77.2003 54.5859 77.1355 54.0706 76.944C53.5582 76.7365 53.1164 76.3859 52.7983 75.9344C52.4841 75.4976 52.2845 74.9894 52.2175 74.4558C52.4019 74.9368 52.6654 75.3837 52.9972 75.7781ZM27.4157 107.814C27.289 107.81 27.169 107.756 27.081 107.665C26.993 107.574 26.9439 107.452 26.9439 107.326C26.9439 107.199 26.993 107.078 27.081 106.987C27.169 106.896 27.289 106.842 27.4157 106.837C27.5424 106.842 27.6623 106.896 27.7503 106.987C27.8383 107.078 27.8875 107.199 27.8875 107.326C27.8875 107.452 27.8383 107.574 27.7503 107.665C27.6623 107.756 27.5424 107.81 27.4157 107.814ZM26.9459 101.132C27.0726 101.136 27.1925 101.19 27.2805 101.281C27.3685 101.372 27.4177 101.494 27.4177 101.62C27.4177 101.747 27.3685 101.868 27.2805 101.959C27.1925 102.051 27.0726 102.104 26.9459 102.109C26.8192 102.104 26.6992 102.051 26.6112 101.959C26.5232 101.868 26.474 101.747 26.474 101.62C26.474 101.494 26.5232 101.372 26.6112 101.281C26.6992 101.19 26.8192 101.136 26.9459 101.132ZM26.6327 103.789C26.7594 103.794 26.8793 103.847 26.9673 103.938C27.0553 104.029 27.1045 104.151 27.1045 104.278C27.1045 104.404 27.0553 104.526 26.9673 104.617C26.8793 104.708 26.7594 104.762 26.6327 104.766C26.506 104.762 26.386 104.708 26.298 104.617C26.21 104.526 26.1608 104.404 26.1609 104.278C26.1609 104.151 26.21 104.029 26.298 103.938C26.386 103.847 26.506 103.794 26.6327 103.789H26.6327ZM26.8676 114.302C26.7409 114.297 26.6209 114.244 26.5329 114.153C26.4449 114.062 26.3957 113.94 26.3957 113.813C26.3957 113.687 26.4449 113.565 26.5329 113.474C26.6209 113.383 26.7409 113.329 26.8676 113.325C26.9943 113.329 27.1142 113.383 27.2022 113.474C27.2902 113.565 27.3394 113.687 27.3394 113.813C27.3394 113.94 27.2903 114.061 27.2023 114.153C27.1143 114.244 26.9943 114.297 26.8676 114.302H26.8676ZM27.7289 111.332C27.6022 111.327 27.4822 111.274 27.3942 111.182C27.3062 111.091 27.257 110.97 27.257 110.843C27.257 110.717 27.3062 110.595 27.3942 110.504C27.4822 110.413 27.6022 110.359 27.7289 110.355C27.8556 110.359 27.9755 110.413 28.0635 110.504C28.1515 110.595 28.2007 110.717 28.2007 110.843C28.2007 110.97 28.1515 111.091 28.0635 111.182C27.9755 111.274 27.8556 111.327 27.7289 111.332H27.7289ZM67.3329 92.801C67.1534 92.814 66.9772 92.8433 66.7978 92.8661C66.4422 92.9117 66.0898 92.9703 65.7342 93.0257C65.0262 93.1429 64.3182 93.2667 63.6103 93.3969C62.1976 93.651 60.786 93.9169 59.3755 94.1948L50.9157 95.846L42.4495 97.4939L38.218 98.3081L33.9767 99.0995C36.7791 98.4514 39.5882 97.8456 42.4005 97.2496C45.2128 96.6569 48.0316 96.0935 50.8505 95.5268C53.6758 94.9895 56.4979 94.4423 59.3298 93.9473C60.5043 93.7454 61.681 93.5489 62.8599 93.3579C62.6807 93.2593 62.5161 93.1365 62.3705 92.9931C62.1813 92.8238 62.0051 92.6414 61.8322 92.4557C61.4961 92.078 61.1797 91.6806 60.873 91.2833C60.2564 90.4822 59.6887 89.6452 59.1373 88.805C58.5925 87.9582 58.0574 87.1017 57.555 86.2289C57.0525 85.3561 56.5599 84.48 56.1097 83.5779L56.9482 84.8318L57.7703 86.0986L59.4114 88.6258C59.9562 89.4693 60.5108 90.3063 61.0753 91.1368C61.3591 91.5504 61.6495 91.9575 61.9562 92.3515C62.105 92.5538 62.264 92.7483 62.4325 92.9345C62.5687 93.091 62.7218 93.2319 62.8892 93.3546C63.1209 93.3155 63.3525 93.2764 63.5842 93.2406C64.2954 93.1331 65.0077 93.0333 65.7211 92.941C66.3385 92.852 66.9605 92.7987 67.5841 92.7814L67.3329 92.801Z" fill="black"/>
<path d="M96.4238 104.873C96.0562 103.703 95.7638 101.923 95.6846 99.0314C95.5521 94.3612 95.2672 90.4893 95.1479 89.0198C96.4852 88.996 97.5674 88.7038 98.226 88.0303C98.226 88.0303 101.648 98.3279 96.4238 104.873Z" fill="black"/>
<path d="M67.6015 92.7775L67.5825 92.7792C67.6793 92.7792 67.776 92.7754 67.873 92.7805L67.6015 92.7775Z" fill="white"/>
<path d="M94.6736 79.3835C94.8037 81.0205 94.9087 82.6586 95.0246 84.2952L95.1786 86.7512C95.2322 87.5697 95.2708 88.3891 95.3583 89.2039C95.6393 92.4785 95.8294 95.7591 95.9285 99.0457C95.9444 100.674 96.0987 102.297 96.39 103.899C96.5284 104.688 96.7962 105.448 97.1826 106.15C97.389 106.488 97.6342 106.802 97.9133 107.085C98.2017 107.374 98.4954 107.66 98.7912 107.944C99.9572 109.094 101.21 110.153 102.539 111.111C103.203 111.576 103.965 111.913 104.635 112.407C104.981 112.644 105.297 112.921 105.577 113.232C105.729 113.398 105.828 113.605 105.861 113.828C105.868 113.954 105.827 114.077 105.746 114.174C105.703 114.215 105.658 114.253 105.61 114.289L105.459 114.369L105.514 114.297C105.494 114.468 105.423 114.628 105.308 114.758C105.241 114.826 105.153 114.87 105.058 114.884C104.968 114.894 104.876 114.884 104.791 114.854L104.912 114.794C104.859 114.947 104.79 115.094 104.707 115.233C104.624 115.377 104.516 115.506 104.389 115.612C104.253 115.728 104.081 115.793 103.903 115.796C103.728 115.789 103.559 115.733 103.413 115.635L103.569 115.567C103.532 115.749 103.463 115.924 103.366 116.083C103.269 116.249 103.13 116.386 102.964 116.481C102.793 116.573 102.6 116.617 102.407 116.607C102.221 116.597 102.039 116.558 101.865 116.492C101.855 116.488 101.845 116.483 101.836 116.476L101.831 116.472C100.235 115.168 98.6351 113.866 97.0258 112.582L96.4213 112.106C96.3343 112.03 96.2382 111.966 96.1352 111.914C96.0286 111.862 95.9185 111.818 95.8056 111.781C95.5944 111.699 95.3677 111.664 95.1414 111.678C94.915 111.692 94.6946 111.756 94.4955 111.864C94.1225 112.141 93.8603 112.541 93.7558 112.993C93.6195 113.523 93.382 114.022 93.0561 114.463C92.8773 114.704 92.6424 114.898 92.3716 115.028C92.1009 115.158 91.8024 115.22 91.5021 115.209C91.4598 115.207 91.4177 115.201 91.3765 115.191C91.3525 115.187 91.3289 115.181 91.3058 115.173L91.2639 115.158L91.2432 115.15C91.2279 115.144 91.2133 115.136 91.2 115.127C91.1532 115.095 91.1146 115.054 91.0873 115.004C91.0877 115.007 91.0931 115.016 91.0858 115.003L91.0557 114.949C91.0361 114.909 91.0191 114.868 91.0048 114.827C90.9582 114.68 90.9324 114.528 90.9281 114.375C90.9209 114.1 90.94 113.825 90.9851 113.554C91.028 113.282 91.0792 113.046 91.1081 112.8C91.1382 112.554 91.1551 112.307 91.1586 112.059C91.1656 111.565 91.1155 111.072 91.0091 110.589C90.903 110.107 90.7382 109.64 90.5185 109.198C90.3932 108.96 90.285 108.713 90.1946 108.459C90.1077 108.202 90.0403 107.939 89.9928 107.672C89.9019 107.149 89.854 106.619 89.8496 106.088C89.8474 105.561 89.8473 105.064 89.8245 104.551C89.7852 103.534 89.6821 102.52 89.5156 101.515C89.3521 100.517 89.0875 99.5211 88.8683 98.5123C88.424 96.5004 87.9924 94.4857 87.5736 92.4681C87.153 90.4509 86.768 88.4262 86.4186 86.3942C86.2417 85.3788 86.0826 84.3599 85.9499 83.3369C85.883 82.8256 85.823 82.3132 85.7777 81.799C85.7234 81.2846 85.7077 80.7669 85.7307 80.2502C85.7309 80.2466 85.7319 80.2431 85.7335 80.2399C85.7351 80.2366 85.7373 80.2338 85.74 80.2314C85.7427 80.229 85.7458 80.2272 85.7493 80.226C85.7527 80.2249 85.7563 80.2244 85.7599 80.2246C85.7671 80.2253 85.7737 80.2287 85.7785 80.2341C85.7832 80.2395 85.7857 80.2465 85.7855 80.2537C85.7836 80.7666 85.82 81.279 85.8944 81.7865C85.9601 82.2959 86.0404 82.8037 86.1277 83.3103C86.3034 84.3233 86.501 85.3328 86.7009 86.3418C87.1036 88.3592 87.5609 90.3662 88.0048 92.3756C88.4555 94.3837 88.9209 96.3886 89.4009 98.3903C89.6275 99.3914 89.8933 100.389 90.0683 101.422C90.2424 102.449 90.3518 103.486 90.3958 104.527C90.4209 105.043 90.4231 105.575 90.427 106.078C90.4328 106.577 90.4794 107.075 90.5662 107.566C90.61 107.806 90.6695 108.043 90.7442 108.275C90.8246 108.507 90.9216 108.733 91.0344 108.951C91.2688 109.435 91.4434 109.946 91.5541 110.472C91.6646 110.997 91.714 111.533 91.7014 112.069C91.695 112.336 91.6742 112.603 91.6392 112.868C91.6056 113.132 91.5459 113.4 91.5068 113.636C91.4649 113.873 91.4453 114.113 91.4483 114.353C91.4497 114.457 91.4652 114.561 91.4945 114.661C91.5008 114.68 91.5084 114.699 91.517 114.717L91.5333 114.747L91.5551 114.789C91.5414 114.75 91.5152 114.717 91.4807 114.695C91.4568 114.682 91.4545 114.682 91.4587 114.683L91.4608 114.683L91.4644 114.684C91.463 114.686 91.4793 114.688 91.4875 114.69C91.5088 114.695 91.5307 114.699 91.5528 114.7C91.7697 114.704 91.9845 114.656 92.1789 114.56C92.3734 114.464 92.5418 114.322 92.6701 114.148C92.9599 113.759 93.1742 113.319 93.3017 112.852C93.4463 112.295 93.7869 111.808 94.2612 111.481C94.5182 111.332 94.8085 111.25 95.1055 111.243C95.3895 111.238 95.6719 111.285 95.9396 111.38C96.0713 111.425 96.1997 111.479 96.3238 111.542C96.4502 111.608 96.5683 111.689 96.6757 111.783L97.2738 112.279L101.987 116.285L101.953 116.265C102.101 116.325 102.258 116.362 102.417 116.376C102.569 116.387 102.722 116.356 102.858 116.287C102.994 116.213 103.108 116.104 103.188 115.972C103.274 115.838 103.335 115.69 103.369 115.535C103.372 115.519 103.38 115.504 103.39 115.491C103.4 115.479 103.413 115.468 103.428 115.462C103.443 115.455 103.459 115.451 103.476 115.452C103.492 115.453 103.508 115.457 103.522 115.465L103.525 115.466C103.637 115.543 103.768 115.589 103.904 115.597C104.037 115.595 104.165 115.547 104.266 115.461C104.482 115.264 104.643 115.014 104.733 114.736L104.734 114.733C104.742 114.71 104.76 114.691 104.782 114.68C104.804 114.67 104.83 114.669 104.853 114.677C104.906 114.701 104.965 114.71 105.023 114.701C105.081 114.692 105.135 114.667 105.178 114.627C105.264 114.528 105.318 114.405 105.335 114.275L105.336 114.27C105.338 114.255 105.344 114.241 105.354 114.229C105.363 114.217 105.376 114.208 105.39 114.202C105.566 114.132 105.704 114.005 105.685 113.835C105.655 113.65 105.571 113.478 105.445 113.339C105.179 113.036 104.873 112.77 104.537 112.547C103.877 112.07 103.117 111.745 102.428 111.274C101.74 110.814 101.096 110.298 100.457 109.777C99.8197 109.255 99.1985 108.714 98.5877 108.161C98.2825 107.885 97.9799 107.606 97.6808 107.321C97.3736 107.027 97.1021 106.698 96.8719 106.34C96.4435 105.612 96.1388 104.818 95.9701 103.991C95.6421 102.367 95.4653 100.716 95.442 99.0594C95.3485 95.7824 95.1992 92.5054 94.9692 89.2344C94.7914 85.9523 94.7067 82.6684 94.6187 79.3863C94.6185 79.3791 94.6211 79.3721 94.626 79.3669C94.6309 79.3616 94.6376 79.3584 94.6448 79.3581C94.652 79.3577 94.659 79.3602 94.6644 79.3649C94.6698 79.3697 94.6731 79.3764 94.6736 79.3835V79.3835Z" fill="black"/>
<path d="M98.6777 111.812L103.554 115.441C103.568 115.452 103.58 115.465 103.59 115.481C103.599 115.496 103.605 115.513 103.608 115.531C103.61 115.549 103.609 115.567 103.605 115.585C103.6 115.602 103.593 115.619 103.582 115.633C103.571 115.648 103.557 115.66 103.542 115.669C103.526 115.678 103.509 115.684 103.491 115.687C103.473 115.69 103.455 115.689 103.438 115.684C103.42 115.68 103.404 115.672 103.389 115.661L103.384 115.657L98.6777 111.812Z" fill="black"/>
<path d="M100.061 111.157L104.905 114.655C104.935 114.676 104.955 114.709 104.961 114.745C104.966 114.78 104.958 114.817 104.936 114.847C104.915 114.876 104.883 114.896 104.847 114.902C104.811 114.908 104.774 114.899 104.744 114.877L104.739 114.874L100.061 111.157Z" fill="black"/>
<path d="M101.574 111.248L105.51 114.178C105.539 114.2 105.558 114.232 105.563 114.268C105.568 114.304 105.559 114.341 105.537 114.37C105.515 114.399 105.483 114.418 105.447 114.424C105.411 114.429 105.375 114.42 105.345 114.398L105.339 114.394L101.574 111.248Z" fill="black"/>
<path d="M24.8699 101.756C23.0728 102.216 21.2458 102.552 19.4022 102.759C17.5566 102.973 15.7001 103.079 13.8422 103.077C11.9813 103.066 10.1243 102.904 8.28983 102.592L6.92126 102.323C6.46438 102.239 6.01992 102.095 5.56941 101.984C4.66488 101.771 3.79341 101.444 2.90984 101.162L2.89972 101.158L2.89637 101.156C2.60115 100.993 2.29461 100.851 1.9791 100.732C1.66773 100.612 1.34046 100.539 1.00775 100.514C0.85749 100.485 0.702034 100.508 0.565813 100.577C0.429591 100.647 0.320328 100.759 0.2552 100.897C0.172846 101.21 0.179741 101.539 0.275103 101.847C0.277746 101.859 0.278474 101.87 0.277254 101.881L0.276617 101.887C0.245748 102.119 0.265501 102.355 0.334524 102.579C0.367097 102.68 0.423345 102.772 0.498606 102.847C0.575851 102.912 0.669243 102.954 0.768706 102.969C0.803157 102.976 0.833598 102.996 0.853331 103.024C0.873063 103.053 0.880471 103.089 0.873926 103.123L0.873527 103.125L0.872875 103.129C0.850476 103.242 0.843137 103.357 0.851051 103.472C0.85781 103.585 0.883723 103.695 0.927676 103.799C0.969376 103.898 1.03432 103.986 1.11701 104.054C1.20127 104.123 1.29772 104.177 1.40144 104.211C1.43819 104.225 1.46836 104.253 1.48633 104.288C1.5043 104.323 1.50883 104.364 1.4991 104.402L1.49703 104.41C1.47917 104.49 1.48464 104.574 1.5128 104.65C1.54437 104.73 1.59885 104.799 1.6694 104.848C1.84111 104.96 2.03756 105.028 2.24162 105.046C2.28159 105.052 2.31846 105.071 2.34645 105.1C2.37443 105.129 2.39194 105.167 2.39622 105.207L2.39789 105.223C2.42036 105.457 2.52787 105.674 2.70009 105.834C2.78971 105.909 2.89297 105.965 3.00412 106.001C3.14925 106.052 3.28991 106.115 3.42468 106.19C3.89951 106.476 4.40613 106.707 4.93432 106.877C5.458 107.047 5.99915 107.157 6.54759 107.206C7.13225 107.24 7.71211 107.332 8.27867 107.48C8.8523 107.641 9.4004 107.881 9.90691 108.195C10.4224 108.501 10.8874 108.885 11.2854 109.333L11.5612 109.661C11.6469 109.767 11.7381 109.869 11.8346 109.965C12.0233 110.163 12.2228 110.351 12.4321 110.527C12.8531 110.877 13.308 111.185 13.7901 111.445C14.2722 111.699 14.7844 111.891 15.3145 112.016C15.8412 112.136 16.3835 112.171 16.9212 112.121C17.0547 112.106 17.1873 112.084 17.3183 112.054C17.4516 112.035 17.5825 112.002 17.7089 111.956C17.8362 111.912 17.9656 111.873 18.092 111.827L18.4566 111.649C18.5801 111.593 18.6976 111.524 18.8074 111.445L19.1494 111.219C19.388 111.055 19.6164 110.876 19.8632 110.726C21.8233 109.528 23.9706 108.667 26.216 108.177C26.2231 108.176 26.2306 108.177 26.2368 108.181C26.2429 108.185 26.2473 108.191 26.249 108.198C26.2503 108.205 26.249 108.212 26.2453 108.218C26.2416 108.224 26.2358 108.229 26.2289 108.231C25.1415 108.557 24.078 108.958 23.046 109.43C22.0135 109.885 21.0259 110.434 20.0959 111.072C19.8601 111.224 19.6455 111.404 19.4196 111.568L19.0562 111.823C18.9377 111.913 18.8109 111.992 18.6775 112.058L18.2796 112.264C18.1412 112.32 17.9988 112.368 17.8582 112.42C17.7184 112.475 17.5736 112.516 17.4258 112.542C17.2802 112.579 17.1327 112.608 16.9839 112.628C16.3883 112.703 15.7842 112.679 15.1965 112.557C14.616 112.427 14.0543 112.225 13.5247 111.955C12.7347 111.55 12.0195 111.013 11.4096 110.369C11.3055 110.264 11.2068 110.153 11.1138 110.038L10.841 109.713C10.1134 108.903 9.17611 108.308 8.13219 107.995C7.5985 107.848 7.05141 107.753 6.49901 107.714C5.91285 107.654 5.33602 107.525 4.78108 107.327C4.22933 107.133 3.70181 106.876 3.20899 106.562C3.09622 106.496 2.97821 106.439 2.85614 106.392C2.69731 106.335 2.55136 106.248 2.42674 106.134C2.18376 105.896 2.0408 105.575 2.02696 105.235L2.18324 105.412C2.05731 105.388 1.93331 105.355 1.81229 105.313C1.68342 105.267 1.56306 105.201 1.45609 105.115C1.33841 105.023 1.25026 104.898 1.20239 104.757C1.15441 104.61 1.15394 104.453 1.20104 104.307L1.29654 104.506C1.15725 104.453 1.02898 104.375 0.918277 104.276C0.806055 104.175 0.719254 104.049 0.664904 103.908C0.612857 103.773 0.584303 103.63 0.580473 103.485C0.575574 103.343 0.590285 103.201 0.624192 103.063L0.728292 103.223C0.579286 103.195 0.441171 103.126 0.329954 103.023C0.229455 102.918 0.155895 102.79 0.115536 102.651C0.044338 102.391 0.0302348 102.12 0.0741968 101.855L0.0756255 101.894C-0.0260462 101.546 -0.0255213 101.175 0.0771389 100.827C0.112252 100.736 0.16526 100.652 0.233037 100.582C0.300815 100.512 0.381999 100.456 0.471818 100.417C0.644385 100.349 0.830373 100.321 1.01536 100.336C1.36545 100.366 1.70925 100.447 2.03578 100.577C2.36217 100.694 2.67972 100.834 2.98594 100.997L2.97264 100.991C4.71794 101.58 6.51796 101.994 8.34579 102.225C10.1714 102.448 12.0079 102.57 13.847 102.591C15.6869 102.624 17.5277 102.536 19.3654 102.395C20.2843 102.321 21.2015 102.225 22.1169 102.108C23.0344 102.004 23.9466 101.859 24.8571 101.703C24.8607 101.702 24.8643 101.702 24.8679 101.703C24.8714 101.703 24.8748 101.705 24.8778 101.707C24.8808 101.709 24.8835 101.711 24.8855 101.714C24.8875 101.717 24.889 101.721 24.8897 101.724C24.8909 101.731 24.8895 101.738 24.8859 101.744C24.8822 101.75 24.8766 101.754 24.8699 101.756Z" fill="black"/>
<path d="M0.160493 101.735C0.48841 101.724 0.816687 101.729 1.14404 101.752C1.47017 101.768 1.79334 101.821 2.10726 101.911C1.7881 101.867 1.46492 101.859 1.14404 101.889C0.824736 101.912 0.506832 101.952 0.191557 102.008L0.189008 102.008C0.17114 102.011 0.152813 102.011 0.135074 102.007C0.117335 102.003 0.100535 101.996 0.0856404 101.986C0.0707456 101.975 0.0580497 101.962 0.0482787 101.947C0.0385077 101.931 0.0318561 101.914 0.0287043 101.896C0.0255525 101.879 0.0259642 101.86 0.029914 101.843C0.0338638 101.825 0.0412718 101.808 0.0517187 101.793C0.0621655 101.779 0.0754428 101.766 0.0907879 101.756C0.106133 101.747 0.123243 101.74 0.141138 101.737C0.147539 101.736 0.154004 101.735 0.160493 101.735Z" fill="black"/>
<path d="M0.705348 102.965C0.992839 102.9 1.28661 102.866 1.58144 102.865C1.87291 102.855 2.16275 102.912 2.42949 103.029C2.15603 102.957 1.86977 102.948 1.59211 103.001C1.31801 103.047 1.04968 103.123 0.79177 103.226L0.78723 103.228C0.770405 103.235 0.752414 103.238 0.734282 103.238C0.71615 103.238 0.698236 103.234 0.681557 103.227C0.664878 103.22 0.649763 103.209 0.637077 103.196C0.62439 103.183 0.614378 103.168 0.607615 103.151C0.600853 103.134 0.597473 103.117 0.597664 103.098C0.597855 103.08 0.601615 103.062 0.608731 103.046C0.615846 103.029 0.626176 103.014 0.639133 103.001C0.652089 102.989 0.667415 102.979 0.68424 102.972C0.691101 102.969 0.698156 102.967 0.705348 102.965Z" fill="black"/>
<path d="M1.30318 104.229C1.55252 104.166 1.80659 104.124 2.06282 104.103C2.19063 104.093 2.31912 104.093 2.4469 104.104C2.57517 104.109 2.69987 104.148 2.80892 104.215C2.69378 104.17 2.56877 104.155 2.44619 104.172C2.32419 104.184 2.20344 104.207 2.08521 104.239C1.8491 104.303 1.61861 104.386 1.39606 104.487L1.39351 104.488C1.36014 104.504 1.32213 104.505 1.28783 104.492C1.25353 104.479 1.22574 104.453 1.2106 104.42C1.19545 104.387 1.19418 104.349 1.20706 104.314C1.21994 104.28 1.24592 104.252 1.27929 104.237C1.287 104.234 1.295 104.231 1.30318 104.229Z" fill="black"/>
<path d="M2.09812 105.153C2.19411 105.055 2.3181 104.989 2.45305 104.964C2.56543 104.938 2.68035 104.925 2.79571 104.924C3.01665 104.923 3.23703 104.946 3.45316 104.992C3.23772 104.992 3.0229 105.015 2.81228 105.06C2.71188 105.082 2.61423 105.115 2.52108 105.159C2.44508 105.19 2.37838 105.24 2.32744 105.304C2.32041 105.324 2.30903 105.342 2.29413 105.357C2.27923 105.372 2.26119 105.383 2.24132 105.39C2.22145 105.397 2.20026 105.4 2.1793 105.397C2.15833 105.395 2.13812 105.388 2.12014 105.377C2.10216 105.366 2.08687 105.351 2.07537 105.334C2.06388 105.316 2.05648 105.296 2.05371 105.275C2.05095 105.255 2.05289 105.233 2.05938 105.213C2.06588 105.193 2.07677 105.175 2.09127 105.16L2.09812 105.153Z" fill="black"/>
<path d="M19.2871 108.141C19.6262 108.243 19.9757 108.306 20.329 108.328C20.4952 108.332 20.661 108.311 20.8207 108.265C20.9906 108.21 21.1537 108.137 21.3068 108.045C21.2192 108.222 21.079 108.367 20.9054 108.462C20.7271 108.558 20.5269 108.607 20.3243 108.603C20.1273 108.596 19.9336 108.551 19.7537 108.471C19.5762 108.396 19.417 108.283 19.2871 108.141Z" fill="black"/>
<path d="M59.2321 61.4247L59.9841 64.9174L58.9657 61.4927C58.9553 61.4578 58.9592 61.4202 58.9766 61.3881C58.994 61.3561 59.0234 61.3323 59.0584 61.3219C59.0934 61.3116 59.131 61.3155 59.1631 61.3329C59.1952 61.3502 59.219 61.3796 59.2294 61.4145L59.2321 61.4247Z" fill="black"/>
<path d="M62.1204 50.4655C61.7153 50.4655 60.9283 50.3125 60.449 49.2251C60.4344 49.1919 60.4337 49.1542 60.4469 49.1203C60.4602 49.0865 60.4863 49.0593 60.5196 49.0447C60.5529 49.03 60.5906 49.0291 60.6246 49.0422C60.6585 49.0553 60.6859 49.0813 60.7007 49.1145C61.1783 50.198 61.9631 50.2143 62.2265 50.1891L62.998 45.3492C62.9302 45.2442 62.8379 45.1572 62.729 45.0958C62.6201 45.0343 62.4979 45.0001 62.3729 44.9962C61.9421 45.0286 61.6149 45.6043 61.6117 45.61C61.6029 45.6257 61.5911 45.6396 61.577 45.6508C61.5628 45.662 61.5466 45.6703 61.5292 45.6752C61.5119 45.6801 61.4937 45.6816 61.4758 45.6795C61.4578 45.6775 61.4405 45.6719 61.4247 45.6631C61.4089 45.6543 61.395 45.6425 61.3838 45.6284C61.3726 45.6143 61.3643 45.5981 61.3594 45.5808C61.3544 45.5634 61.353 45.5453 61.355 45.5274C61.3571 45.5095 61.3627 45.4922 61.3715 45.4764C61.3876 45.4475 61.7728 44.7669 62.3512 44.7227C62.532 44.7224 62.7099 44.7686 62.8676 44.8568C63.0254 44.9451 63.1577 45.0723 63.2519 45.2264C63.2634 45.2413 63.2718 45.2584 63.2764 45.2766C63.2811 45.2948 63.282 45.3138 63.279 45.3323L62.4823 50.3303C62.4781 50.357 62.466 50.3819 62.4477 50.4018C62.4293 50.4216 62.4054 50.4356 62.3791 50.442C62.2939 50.4589 62.2072 50.4668 62.1204 50.4655Z" fill="black"/>
<path d="M85.3764 80.4241C85.345 80.4241 85.3144 80.4133 85.29 80.3935C85.2655 80.3737 85.2486 80.3461 85.2422 80.3153C85.2422 80.3153 85.1832 80.0358 85.0903 79.5498C85.0835 79.514 85.0912 79.477 85.1117 79.4469C85.1321 79.4168 85.1638 79.396 85.1996 79.3892C85.2354 79.3824 85.2725 79.39 85.3027 79.4105C85.3329 79.4309 85.3537 79.4625 85.3605 79.4983C85.4171 79.7944 85.4609 80.0135 85.4864 80.1385L94.9866 79.2114C95.0046 79.2091 95.023 79.2105 95.0405 79.2155C95.058 79.2205 95.0742 79.2291 95.0883 79.2406C95.1024 79.2521 95.1139 79.2664 95.1223 79.2825C95.1306 79.2987 95.1356 79.3164 95.1368 79.3345C95.1403 79.3707 95.1293 79.4068 95.1062 79.4349C95.083 79.463 95.0496 79.4808 95.0134 79.4843L85.39 80.4235C85.3855 80.424 85.381 80.4242 85.3764 80.4241Z" fill="black"/>
<path d="M92.2233 46.36C92.2253 46.4626 92.2517 46.5633 92.3004 46.6537C92.3491 46.7441 92.4187 46.8216 92.5034 46.8799C92.6724 46.9958 92.8596 47.0828 93.0573 47.1372C93.4507 47.2468 93.8643 47.3489 94.2571 47.4484C94.4485 47.5084 94.6505 47.5271 94.8498 47.5034C95.049 47.4796 95.241 47.4139 95.4129 47.3106C95.5785 47.1981 95.709 47.0412 95.7893 46.858C95.8696 46.6747 95.8964 46.4726 95.8667 46.2748C95.8208 46.1068 95.6568 46.0195 95.4719 45.9455C95.2868 45.873 95.082 45.8188 94.8796 45.7463C94.671 45.6767 94.4682 45.5907 94.2732 45.489C94.1736 45.4358 94.078 45.3755 93.9872 45.3086C93.9042 45.2589 93.828 45.1981 93.7446 45.1591C93.5887 45.0682 93.4071 45.0311 93.2279 45.0534C93.0487 45.0758 92.8818 45.1564 92.7531 45.2828C92.4412 45.5582 92.2508 45.9453 92.2233 46.36ZM92.1907 46.36C92.2028 45.9217 92.3435 45.4966 92.5954 45.1374C92.7369 44.9394 92.9454 44.7992 93.1823 44.7426C93.4266 44.6953 93.6798 44.7326 93.9 44.8484C94.0027 44.9022 94.1015 44.9632 94.1958 45.0308C94.2759 45.0871 94.356 45.1431 94.4414 45.194C94.6161 45.2969 94.7988 45.3856 94.9876 45.4595C95.1801 45.5369 95.3792 45.6098 95.5796 45.7106C95.686 45.7607 95.7838 45.8272 95.8695 45.9076C95.9616 45.9971 96.0221 46.1139 96.042 46.2406C96.0475 46.4645 95.9988 46.6863 95.9001 46.8874C95.8015 47.0885 95.6558 47.2629 95.4753 47.3958C95.296 47.5297 95.092 47.6268 94.875 47.6817C94.658 47.7365 94.4323 47.7481 94.2108 47.7156C93.7811 47.655 93.3646 47.5233 92.9784 47.3259C92.7816 47.2277 92.6019 47.0984 92.4462 46.9431C92.2878 46.7897 92.196 46.5803 92.1907 46.36Z" fill="black"/>
<path d="M95.1899 39.7021C95.1935 39.8783 95.2374 40.0513 95.3183 40.2079C95.3991 40.3645 95.5147 40.5006 95.6563 40.6058C95.9382 40.8162 96.2531 40.9784 96.5882 41.0858C97.2543 41.3048 97.9535 41.4832 98.634 41.6409C98.9694 41.733 99.3203 41.7541 99.6644 41.703C100.008 41.6518 100.338 41.5295 100.632 41.3439C100.917 41.1454 101.143 40.8732 101.286 40.5566C101.428 40.2399 101.482 39.8906 101.441 39.5458C101.4 39.393 101.311 39.2576 101.186 39.1597C101.051 39.0608 100.904 38.9794 100.748 38.9175C100.429 38.7847 100.083 38.6863 99.7435 38.5617C99.3966 38.4421 99.0597 38.2952 98.736 38.1225C98.5726 38.0329 98.4152 37.9327 98.265 37.8225C98.1266 37.7265 97.9832 37.638 97.8352 37.5576C97.5527 37.3975 97.2256 37.3335 96.9034 37.3752C96.5779 37.4341 96.2783 37.591 96.0448 37.8249C95.7938 38.0691 95.591 38.3584 95.4473 38.6775C95.2934 38.9983 95.2058 39.3468 95.1899 39.7021ZM95.1572 39.7021C95.1708 39.3408 95.2403 38.9837 95.3632 38.6436C95.4783 38.2933 95.6557 37.9667 95.8871 37.6794C96.1262 37.3702 96.4656 37.1536 96.8472 37.0667C97.2377 36.9962 97.6407 37.0597 97.9906 37.2468C98.158 37.3354 98.3194 37.4349 98.4736 37.5447C98.6139 37.6432 98.7544 37.7412 98.9043 37.8275C99.2077 38.0013 99.5244 38.1509 99.8514 38.2749C100.181 38.4044 100.521 38.5215 100.856 38.6826C101.03 38.7613 101.191 38.866 101.333 38.9929C101.481 39.1308 101.581 39.3128 101.616 39.5116C101.634 39.8826 101.56 40.2522 101.399 40.587C101.238 40.9218 100.996 41.2112 100.694 41.4291C100.393 41.6453 100.051 41.799 99.6896 41.8813C99.3278 41.9635 98.9531 41.9726 98.5877 41.908C97.8693 41.7919 97.1701 41.5788 96.5093 41.2745C96.175 41.1232 95.8677 40.9187 95.5992 40.669C95.4638 40.5461 95.3548 40.397 95.2789 40.2308C95.2029 40.0646 95.1615 39.8848 95.1572 39.7021Z" fill="black"/>
<path d="M96.6417 30.7362C96.5422 30.9865 96.4943 31.2543 96.501 31.5235C96.5144 31.7923 96.6014 32.0522 96.7525 32.275C97.0695 32.7128 97.4876 33.0679 97.9714 33.3101C98.9375 33.8019 99.9464 34.2051 100.986 34.5148C102.02 34.8456 103.057 35.1745 104.088 35.5298C105.129 35.8668 106.113 36.3495 107.141 36.6637C108.159 37.0164 109.226 37.2087 110.304 37.2338C111.387 37.2847 112.448 36.9259 113.277 36.2291C113.674 35.8658 113.991 35.4244 114.208 34.9326C114.423 34.4383 114.568 33.9166 114.639 33.3823C114.779 32.3122 114.745 31.2264 114.537 30.1672C114.265 29.1263 113.824 28.1364 113.234 27.2362C112.655 26.3304 111.964 25.5005 111.179 24.7658C109.618 23.3087 107.558 22.3223 105.419 22.3922C104.352 22.4105 103.302 22.6666 102.346 23.1416C101.395 23.6359 100.546 24.3075 99.8474 25.12C98.4169 26.7414 97.4638 28.7355 96.6417 30.7362ZM96.6115 30.724C97.0086 29.7128 97.4433 28.7155 97.9351 27.7444C98.4166 26.7631 99.003 25.8366 99.6839 24.9811C100.373 24.1134 101.23 23.3939 102.205 22.8658C103.195 22.3519 104.292 22.0749 105.409 22.0565C106.525 22.0235 107.634 22.2418 108.653 22.6953C109.664 23.1506 110.589 23.7752 111.388 24.5419C112.186 25.3005 112.878 26.1623 113.447 27.1044C114.03 28.0376 114.457 29.0593 114.712 30.1294C114.893 31.2108 114.907 32.3137 114.752 33.3994C114.629 34.5002 114.135 35.5269 113.353 36.3123C112.505 37.0361 111.423 37.4279 110.307 37.4151C109.206 37.4231 108.11 37.2564 107.06 36.9213C106.535 36.7656 106.021 36.5676 105.514 36.369C105.011 36.1686 104.502 35.9837 103.993 35.7957C102.974 35.4229 101.94 35.0878 100.918 34.7079C99.884 34.3567 98.8834 33.9135 97.9284 33.3837C97.4446 33.1206 97.027 32.7513 96.7071 32.3036C96.5545 32.0718 96.4683 31.8028 96.4579 31.5256C96.4544 31.2508 96.5066 30.9781 96.6115 30.724Z" fill="black"/>
<path d="M63.199 61.7763C63.3259 61.7719 63.4461 61.7185 63.5343 61.6274C63.6225 61.5362 63.6718 61.4145 63.6718 61.2878C63.6718 61.1611 63.6225 61.0393 63.5343 60.9482C63.4461 60.857 63.3259 60.8036 63.199 60.7993C63.0722 60.8036 62.952 60.857 62.8638 60.9482C62.7756 61.0393 62.7263 61.1611 62.7263 61.2878C62.7263 61.4145 62.7756 61.5362 62.8638 61.6274C62.952 61.7185 63.0722 61.7719 63.199 61.7763Z" fill="black"/>
<path d="M63.669 64.043C63.7959 64.0386 63.9161 63.9853 64.0042 63.8941C64.0924 63.803 64.1417 63.6812 64.1417 63.5545C64.1417 63.4278 64.0924 63.3061 64.0042 63.2149C63.9161 63.1238 63.7959 63.0704 63.669 63.066C63.5421 63.0704 63.422 63.1238 63.3338 63.2149C63.2456 63.3061 63.1963 63.4278 63.1963 63.5545C63.1963 63.6812 63.2456 63.803 63.3338 63.8941C63.422 63.9853 63.5421 64.0386 63.669 64.043Z" fill="black"/>
<path d="M64.0606 66.075C64.1875 66.0706 64.3077 66.0172 64.3959 65.9261C64.484 65.835 64.5333 65.7132 64.5333 65.5865C64.5333 65.4598 64.484 65.3381 64.3959 65.2469C64.3077 65.1558 64.1875 65.1024 64.0606 65.098C63.9338 65.1024 63.8136 65.1558 63.7254 65.2469C63.6372 65.3381 63.5879 65.4598 63.5879 65.5865C63.5879 65.7132 63.6372 65.835 63.7254 65.9261C63.8136 66.0172 63.9338 66.0706 64.0606 66.075Z" fill="black"/>
<path d="M64.452 67.8731C64.5788 67.8687 64.699 67.8154 64.7872 67.7242C64.8754 67.6331 64.9247 67.5113 64.9247 67.3846C64.9247 67.2579 64.8754 67.1362 64.7872 67.045C64.699 66.9539 64.5788 66.9005 64.452 66.8961C64.3251 66.9005 64.2049 66.9539 64.1167 67.045C64.0285 67.1362 63.9792 67.2579 63.9792 67.3846C63.9792 67.5113 64.0285 67.6331 64.1167 67.7242C64.2049 67.8154 64.3251 67.8687 64.452 67.8731Z" fill="black"/>
<path d="M86.1414 79.5982C86.2683 79.5938 86.3885 79.5405 86.4767 79.4493C86.5648 79.3582 86.6141 79.2364 86.6141 79.1097C86.6141 78.983 86.5648 78.8613 86.4767 78.7701C86.3885 78.679 86.2683 78.6256 86.1414 78.6212C86.0146 78.6256 85.8944 78.679 85.8062 78.7701C85.718 78.8613 85.6687 78.983 85.6687 79.1097C85.6687 79.2364 85.718 79.3582 85.8062 79.4493C85.8944 79.5405 86.0146 79.5938 86.1414 79.5982Z" fill="black"/>
<path d="M87.8638 79.3626C87.9907 79.3582 88.1109 79.3048 88.1991 79.2137C88.2873 79.1225 88.3365 79.0008 88.3365 78.8741C88.3365 78.7474 88.2873 78.6256 88.1991 78.5345C88.1109 78.4433 87.9907 78.3899 87.8638 78.3856C87.737 78.3899 87.6168 78.4433 87.5286 78.5345C87.4404 78.6256 87.3911 78.7474 87.3911 78.8741C87.3911 79.0008 87.4404 79.1225 87.5286 79.2137C87.6168 79.3048 87.737 79.3582 87.8638 79.3626Z" fill="black"/>
<path d="M89.8997 79.0513C90.0266 79.0469 90.1468 78.9935 90.235 78.9024C90.3231 78.8113 90.3724 78.6895 90.3724 78.5628C90.3724 78.4361 90.3231 78.3144 90.235 78.2232C90.1468 78.1321 90.0266 78.0787 89.8997 78.0743C89.7729 78.0787 89.6527 78.1321 89.5645 78.2232C89.4763 78.3144 89.427 78.4361 89.427 78.5628C89.427 78.6895 89.4763 78.8113 89.5645 78.9024C89.6527 78.9935 89.7729 79.0469 89.8997 79.0513Z" fill="black"/>
<path d="M91.9354 78.8166C92.0622 78.8122 92.1824 78.7588 92.2706 78.6676C92.3588 78.5765 92.4081 78.4548 92.4081 78.328C92.4081 78.2013 92.3588 78.0796 92.2706 77.9885C92.1824 77.8973 92.0622 77.8439 91.9354 77.8395C91.8085 77.8439 91.6883 77.8973 91.6001 77.9885C91.5119 78.0796 91.4626 78.2013 91.4626 78.328C91.4626 78.4548 91.5119 78.5765 91.6001 78.6676C91.6883 78.7588 91.8085 78.8122 91.9354 78.8166Z" fill="black"/>
<path d="M93.9717 78.5809C94.0986 78.5765 94.2188 78.5231 94.307 78.432C94.3952 78.3409 94.4445 78.2191 94.4445 78.0924C94.4445 77.9657 94.3952 77.8439 94.307 77.7528C94.2188 77.6617 94.0986 77.6083 93.9717 77.6039C93.8449 77.6083 93.7247 77.6617 93.6365 77.7528C93.5483 77.8439 93.499 77.9657 93.499 78.0924C93.499 78.2191 93.5483 78.3409 93.6365 78.432C93.7247 78.5231 93.8449 78.5765 93.9717 78.5809Z" fill="black"/>
<path d="M78.7418 58.1809C78.8686 58.1765 78.9888 58.1232 79.077 58.032C79.1652 57.9409 79.2145 57.8191 79.2145 57.6924C79.2145 57.5657 79.1652 57.444 79.077 57.3528C78.9888 57.2617 78.8686 57.2083 78.7418 57.2039C78.6149 57.2083 78.4947 57.2617 78.4065 57.3528C78.3183 57.444 78.269 57.5657 78.269 57.6924C78.269 57.8191 78.3183 57.9409 78.4065 58.032C78.4947 58.1232 78.6149 58.1765 78.7418 58.1809Z" fill="black"/>
<path d="M78.1544 60.2525C78.2812 60.2481 78.4014 60.1947 78.4896 60.1036C78.5778 60.0125 78.6271 59.8907 78.6271 59.764C78.6271 59.6373 78.5778 59.5155 78.4896 59.4244C78.4014 59.3333 78.2812 59.2799 78.1544 59.2755C78.0275 59.2799 77.9073 59.3333 77.8191 59.4244C77.7309 59.5155 77.6816 59.6373 77.6816 59.764C77.6816 59.8907 77.7309 60.0125 77.8191 60.1036C77.9073 60.1947 78.0275 60.2481 78.1544 60.2525Z" fill="black"/>
<path d="M77.6453 62.8701C77.7722 62.8657 77.8924 62.8123 77.9806 62.7212C78.0688 62.63 78.118 62.5083 78.118 62.3816C78.118 62.2549 78.0688 62.1331 77.9806 62.042C77.8924 61.9508 77.7722 61.8975 77.6453 61.8931C77.5185 61.8975 77.3983 61.9508 77.3101 62.042C77.2219 62.1331 77.1726 62.2549 77.1726 62.3816C77.1726 62.5083 77.2219 62.63 77.3101 62.7212C77.3983 62.8123 77.5185 62.8657 77.6453 62.8701Z" fill="black"/>
<path d="M77.4888 65.3716C77.6157 65.3672 77.7359 65.3138 77.8241 65.2227C77.9123 65.1316 77.9615 65.0098 77.9615 64.8831C77.9615 64.7564 77.9123 64.6346 77.8241 64.5435C77.7359 64.4524 77.6157 64.399 77.4888 64.3946C77.362 64.399 77.2418 64.4524 77.1536 64.5435C77.0654 64.6346 77.0161 64.7564 77.0161 64.8831C77.0161 65.0098 77.0654 65.1316 77.1536 65.2227C77.2418 65.3138 77.362 65.3672 77.4888 65.3716Z" fill="black"/>
<path d="M78.0767 67.8336C78.2036 67.8292 78.3238 67.7758 78.412 67.6847C78.5001 67.5935 78.5494 67.4718 78.5494 67.3451C78.5494 67.2184 78.5001 67.0966 78.412 67.0055C78.3238 66.9143 78.2036 66.8609 78.0767 66.8566C77.9499 66.8609 77.8297 66.9143 77.7415 67.0055C77.6533 67.0966 77.604 67.2184 77.604 67.3451C77.604 67.4718 77.6533 67.5935 77.7415 67.6847C77.8297 67.7758 77.9499 67.8292 78.0767 67.8336Z" fill="black"/>
</svg>
