<svg width="20" height="20" viewBox="0 0 20 20" fill="none" xmlns="http://www.w3.org/2000/svg">
<path d="M7.62019 9.44667L12.0779 4.99684C12.1511 4.92302 12.2382 4.86443 12.3342 4.82444C12.4302 4.78446 12.5331 4.76387 12.6371 4.76387C12.7411 4.76387 12.844 4.78446 12.94 4.82444C13.0359 4.86443 13.1231 4.92302 13.1963 4.99684C13.343 5.1444 13.4253 5.34401 13.4253 5.55208C13.4253 5.76015 13.343 5.95976 13.1963 6.10733L9.29774 10.0452L13.1963 13.9438C13.343 14.0913 13.4253 14.2909 13.4253 14.499C13.4253 14.7071 13.343 14.9067 13.1963 15.0543C13.1233 15.1287 13.0363 15.1879 12.9404 15.2284C12.8444 15.269 12.7413 15.2901 12.6371 15.2905C12.5329 15.2901 12.4298 15.269 12.3338 15.2284C12.2378 15.1879 12.1508 15.1287 12.0779 15.0543L7.62019 10.6044C7.54025 10.5307 7.47645 10.4412 7.43281 10.3415C7.38917 10.2419 7.36664 10.1343 7.36664 10.0255C7.36664 9.91678 7.38917 9.80919 7.43281 9.70956C7.47645 9.60993 7.54025 9.52042 7.62019 9.44667Z" fill="#0B0A0A"/>
</svg>
